<svg width="25" height="28" viewBox="0 0 32 28" fill="#009A77" xmlns="http://www.w3.org/2000/svg">
<path d="M32 24.4842L28.825 20.9685V23.0779H25.9249C24.8749 24.1577 23.5749 25.2375 22.1249 25.8904H28.825V27.9998L32 24.4842Z" fill="#009A77"/>
<path d="M27.6251 15.5446C27.6251 9.81906 23 5.19849 17.2998 5.19849C14.0747 5.19849 11.2249 6.68006 9.32486 8.99034C8.67485 9.81906 8.12485 10.7231 7.74987 11.6522C7.72487 11.7275 7.69987 11.7778 7.67487 11.8531C7.62487 12.0038 7.57487 12.1293 7.52487 12.28C7.17486 13.3096 6.99986 14.4145 6.99986 15.5696C6.99986 16.8503 7.24986 18.0808 7.67484 19.2359L5.74979 20.0647L10.3498 21.8979L12.1499 17.2773L10.2998 18.0809C9.99984 17.2773 9.84984 16.4235 9.84984 15.5697C9.84984 11.4513 13.1999 8.11131 17.3002 8.11131C21.4006 8.11131 24.7506 11.4763 24.7506 15.5949C24.7506 19.7136 21.4006 23.0785 17.3002 23.0785H0L1.35002 24.4346L0 25.8911H17.3002C22.9753 25.8911 27.6255 21.2705 27.6255 15.545L27.6251 15.5446Z" fill="#009A77"/>
<path d="M6.85 10.9739C6.925 11.0241 7.00001 11.0743 7.05001 11.1245C7.42501 10.2457 7.92499 9.41694 8.525 8.6385C8.44999 8.58827 8.39999 8.53805 8.32499 8.48783C7.87499 8.06093 7.57498 7.45821 7.57498 6.78022C7.57498 5.49955 8.625 4.44479 9.90004 4.44479C10.1 4.44479 10.3 4.46991 10.475 4.52013L9.57501 6.32818L11.55 5.65019L14.2751 4.72102L14.2001 4.52013L12.675 0L11.75 1.88336C11.15 1.65735 10.5249 1.53179 9.89996 1.53179C7.02495 1.53179 4.69989 3.86722 4.69989 6.75505C4.72489 8.4878 5.57487 10.0196 6.84992 10.9738L6.85 10.9739Z" fill="#009A77"/>
</svg>
