<svg width="32" height="33" viewBox="0 0 32 33" fill="none" xmlns="http://www.w3.org/2000/svg">
<path d="M13.9676 15.2735C15.859 13.4213 18.4132 12.3712 21.0828 12.3481C23.7524 12.3251 26.3249 13.3309 28.2491 15.1501V6.17111C28.2491 5.35277 27.9184 4.56795 27.3298 3.98929C26.7412 3.41064 25.9428 3.08555 25.1103 3.08555H18.5503C17.8911 1.29593 16.1648 0 14.1246 0C12.0844 0 10.358 1.29593 9.69887 3.08555H3.13879C1.41246 3.08555 0 4.47405 0 6.17111V27.77C0 28.5883 0.330693 29.3731 0.919331 29.9518C1.50797 30.5305 2.30633 30.8555 3.13879 30.8555H15.7881C15.1447 30.4544 14.5326 30.007 13.9676 29.467C12.0605 27.581 10.99 25.0296 10.99 22.3703C10.99 19.7109 12.0605 17.1596 13.9676 15.2735V15.2735ZM14.1246 3.08555C14.9877 3.08555 15.694 3.7798 15.694 4.62833C15.694 5.47686 14.9877 6.17111 14.1246 6.17111C13.2614 6.17111 12.5552 5.47686 12.5552 4.62833C12.5552 3.7798 13.2614 3.08555 14.1246 3.08555ZM27.1663 26.0729C27.8568 25.0084 28.2491 23.7279 28.2491 22.3703C28.2491 18.5133 25.1103 15.4278 21.1869 15.4278C17.2634 15.4278 14.1246 18.5133 14.1246 22.3703C14.1246 26.2272 17.2634 29.3128 21.1869 29.3128C22.5522 29.3128 23.8391 28.9271 24.922 28.2637L29.8185 33L32 30.8555L27.1663 26.0729ZM21.1869 26.2272C20.1463 26.2272 19.1483 25.8209 18.4125 25.0975C17.6767 24.3742 17.2634 23.3932 17.2634 22.3703C17.2634 21.3473 17.6767 20.3663 18.4125 19.643C19.1483 18.9197 20.1463 18.5133 21.1869 18.5133C22.2274 18.5133 23.2254 18.9197 23.9612 19.643C24.697 20.3663 25.1103 21.3473 25.1103 22.3703C25.1103 23.3932 24.697 24.3742 23.9612 25.0975C23.2254 25.8209 22.2274 26.2272 21.1869 26.2272Z" fill="#286ADE"/>
</svg>
