<svg width="33" height="33" viewBox="0 0 33 33" fill="none" xmlns="http://www.w3.org/2000/svg">
<path d="M24.27 15.6006L27.148 12.7221L20.2739 5.84666L17.396 8.72517L9.807 1.15304C8.3772 -0.27705 6.04918 -0.27705 4.61937 1.15304L1.13651 4.63659C-0.293294 6.06667 -0.293294 8.39515 1.13651 9.82524L8.70715 17.3974L0 26.1246V33H6.87407L15.5995 24.2728L23.1702 31.8449C24.9116 33.5867 27.258 32.945 28.3578 31.8449L31.8407 28.3614C33.2705 26.9313 33.2705 24.6028 31.8407 23.1727L24.27 15.6006V15.6006ZM11.3285 14.7939L3.73949 7.22175L7.20402 3.7382L9.53204 6.06667L7.369 8.24848L9.95365 10.8336L12.135 8.65183L14.793 11.3103L11.3285 14.7939V14.7939ZM25.7732 29.2598L18.2025 21.6876L21.6854 18.2041L24.3434 20.8626L22.162 23.0444L24.7466 25.6295L26.928 23.4477L29.256 25.7762L25.7732 29.2598V29.2598ZM32.4639 7.40509C32.6339 7.23547 32.7687 7.034 32.8607 6.8122C32.9527 6.5904 33 6.35263 33 6.11251C33 5.87239 32.9527 5.63462 32.8607 5.41282C32.7687 5.19102 32.6339 4.98955 32.4639 4.81993L28.1745 0.529666C27.313 -0.332053 26.1215 -0.00203303 25.5899 0.529666L22.2353 3.88487L29.1094 10.7603L32.4639 7.40509V7.40509Z" fill="#286ADE"/>
</svg>
