<svg width="33" height="33" viewBox="0 0 33 33" fill="none" xmlns="http://www.w3.org/2000/svg">
<path d="M28.2857 0H33V4.71429H28.2857V0Z" fill="#286ADE"/>
<path d="M28.2857 7.07141H33V11.7857H28.2857V7.07141Z" fill="#286ADE"/>
<path d="M21.2143 0H25.9286V4.71429H21.2143V0Z" fill="#286ADE"/>
<path d="M21.2143 7.07141H25.9286V11.7857H21.2143V7.07141Z" fill="#286ADE"/>
<path d="M30.6429 16.5V23.5715H2.35714V4.71432H16.5V2.35718H2.35714C1.73199 2.35718 1.13244 2.60552 0.690391 3.04757C0.248341 3.48962 0 4.08917 0 4.71432V23.5715C0 24.1966 0.248341 24.7962 0.690391 25.2382C1.13244 25.6803 1.73199 25.9286 2.35714 25.9286H11.7857V30.6429H7.07143V33H25.9286V30.6429H21.2143V25.9286H30.6429C31.268 25.9286 31.8676 25.6803 32.3096 25.2382C32.7517 24.7962 33 24.1966 33 23.5715V16.5H30.6429ZM18.8571 30.6429H14.1429V25.9286H18.8571V30.6429Z" fill="#286ADE"/>
</svg>
