<svg width="30" height="29" viewBox="0 0 86 85" fill="#009A77" xmlns="http://www.w3.org/2000/svg">
<path d="M60.0011 22.5789C60.5817 22.3862 60.9722 21.846 60.9722 21.2344V15.5608C60.9722 14.9511 60.5817 14.409 60.0011 14.2175L56.981 13.2187C56.8155 12.7587 56.6272 12.3044 56.4162 11.8628L57.6886 9.18208C57.9079 8.7177 57.8611 8.17308 57.5642 7.7542C56.3669 6.06981 54.905 4.60782 53.218 3.40802C52.7991 3.11107 52.2526 3.06242 51.7901 3.28355L49.1094 4.55601C48.6652 4.34625 48.2122 4.1567 47.7535 3.99244L46.7527 0.971086C46.5619 0.390463 46.0218 0 45.4102 0H39.7366C39.1269 0 38.5848 0.390463 38.3933 0.971086L37.373 4.0505L36.0923 4.58121L33.3566 3.28223C32.8922 3.06298 32.3488 3.111 31.9287 3.40669C30.2443 4.60524 28.781 6.06719 27.5812 7.75288C27.2843 8.17049 27.2356 8.71638 27.4567 9.18076L28.7557 11.9165L28.225 13.1971L25.1456 14.2175C24.5662 14.4102 24.1758 14.9504 24.1758 15.562V21.2356C24.1758 21.8453 24.5662 22.3874 25.1469 22.5788L28.2263 23.5992L28.757 24.8799L27.458 27.6156C27.2388 28.08 27.2855 28.6246 27.5825 29.0435C28.781 30.7279 30.243 32.1911 31.9287 33.3909C32.3463 33.6879 32.8922 33.7347 33.3565 33.5154L36.0373 32.243C36.4814 32.4527 36.9344 32.6423 37.3931 32.8065L38.3939 35.8279C38.586 36.406 39.1262 36.7964 39.7377 36.7964H45.4114C46.021 36.7964 46.5631 36.406 46.7546 35.8254L47.7554 32.8053C48.2153 32.6398 48.6696 32.4515 49.1112 32.2405L51.7919 33.5129C52.2563 33.7334 52.8009 33.6873 53.2198 33.3885C54.9042 32.1912 56.3662 30.7292 57.566 29.0423C57.8629 28.6247 57.9116 28.0788 57.6905 27.6144L56.418 24.9337C56.6278 24.4895 56.8173 24.0365 56.9816 23.5778L60.0011 22.5789ZM55.4173 21.1143C54.9813 21.2584 54.6433 21.6053 54.5087 22.0456C54.2781 22.8 53.9711 23.543 53.5933 24.2531C53.3822 24.648 53.3727 25.1205 53.5636 25.5255L54.7665 28.0571C54.021 28.9985 53.1731 29.8458 52.233 30.5907L49.7014 29.3877C49.2939 29.1937 48.8238 29.2064 48.4277 29.4174C47.7213 29.794 46.9796 30.1023 46.2213 30.3329C45.781 30.4675 45.4347 30.8055 45.2901 31.2414L44.3885 33.9658H40.7599L39.8584 31.2414C39.7143 30.8055 39.3674 30.4675 38.9271 30.3329C38.1727 30.1023 37.4297 29.7952 36.7196 29.4174C36.3247 29.2064 35.8521 29.1969 35.4471 29.3877L32.9156 30.5907C31.9742 29.8451 31.1268 28.9972 30.3807 28.0558L31.5837 25.5242C31.7562 25.1622 31.7663 24.7446 31.6134 24.375L30.593 21.9154C30.4357 21.5363 30.1204 21.2431 29.7312 21.1142L27.0062 20.2127V16.5841L29.7306 15.6825C30.1198 15.5536 30.4357 15.2605 30.5924 14.8814L31.6127 12.4218C31.7656 12.0522 31.7555 11.6333 31.583 11.2725L30.3801 8.74093C31.1256 7.79954 31.9735 6.95222 32.9149 6.2061L35.4465 7.40906C35.8085 7.58154 36.2261 7.59039 36.5958 7.43875L39.0554 6.41838C39.4345 6.26106 39.7276 5.94579 39.8565 5.5566L40.7594 2.83043H44.3879L45.2895 5.55483C45.4335 5.99077 45.7804 6.3288 46.2208 6.46337C46.9751 6.69398 47.7181 7.00103 48.4282 7.37886C48.8231 7.58862 49.2944 7.59936 49.7007 7.40856L52.2323 6.2056C53.1737 6.95113 54.021 7.79902 54.7658 8.73913L53.5628 11.2707C53.3701 11.677 53.3815 12.1483 53.5925 12.5444C53.9691 13.2508 54.2774 13.9925 54.508 14.7508C54.6426 15.1912 54.9806 15.5374 55.4166 15.6821L58.1416 16.5836V20.2122L55.4173 21.1143Z" fill="#009A77"/>
<path d="M12.8529 84.914C19.8755 84.914 25.5902 79.1993 25.5902 72.1768C25.5902 65.6325 20.6266 60.2307 14.2682 59.523V56.6091H41.1579V59.523C34.7995 60.2307 29.8359 65.6325 29.8359 72.1768C29.8359 79.1993 35.5506 84.914 42.5731 84.914C49.5957 84.914 55.3104 79.1993 55.3104 72.1768C55.3104 65.6325 50.3468 60.2307 43.9884 59.523V56.6091H70.8781V59.523C64.5197 60.2307 59.5561 65.6325 59.5561 72.1768C59.5561 79.1993 65.2708 84.914 72.2933 84.914C79.3159 84.914 85.0306 79.1993 85.0306 72.1768C85.0306 65.6325 80.067 60.2307 73.7086 59.523V55.1938C73.7086 54.4129 73.0743 53.7786 72.2933 53.7786H43.9884V45.2871L45.6867 47.5515L47.9511 45.8532L43.7053 40.1922C43.1721 39.4789 41.9742 39.4789 41.4409 40.1922L37.1952 45.8532L39.4596 47.5515L41.1579 45.2871V53.7786H12.8529C12.072 53.7786 11.4377 54.4129 11.4377 55.1938V59.523C5.07928 60.2307 0.115723 65.6325 0.115723 72.1768C0.115723 79.1993 5.83041 84.914 12.8529 84.914ZM73.7086 65.1006V62.3831C78.0378 63.0074 81.464 66.4324 82.087 70.7616H79.3696V73.5921H82.087C81.4628 77.9213 78.0378 81.3475 73.7086 81.9705V79.253H70.8781V81.9705C66.5489 81.3463 63.1227 77.9213 62.4997 73.5921H65.2171V70.7616H62.4997C63.1239 66.4324 66.5489 63.0062 70.8781 62.3831V65.1006H73.7086ZM46.8189 81.1144C45.5294 81.7298 44.0945 82.0836 42.5731 82.0836C41.0518 82.0836 39.617 81.7298 38.3274 81.1144V75.0212C38.3274 74.6402 38.4759 74.2782 38.7602 73.9996C39.0123 73.7405 39.3762 73.5921 39.7566 73.5921C40.2942 73.5921 40.787 73.2875 41.0246 72.8055C41.2641 72.324 41.2084 71.7466 40.8818 71.3195C40.5962 70.9429 40.4503 70.5164 40.4503 70.054C40.4503 69.3975 40.746 68.7872 41.264 68.3809C41.7922 67.9677 42.4588 67.8363 43.1436 68.0031C43.8159 68.1673 44.4003 68.729 44.5968 69.4044C44.8527 70.2763 44.5532 70.9315 44.2556 71.3264C43.9347 71.7554 43.8822 72.3285 44.1223 72.808C44.3637 73.2894 44.8533 73.5921 45.3897 73.5921C46.1782 73.5921 46.8188 74.2334 46.8188 75.0212L46.8189 81.1144ZM42.5731 62.2697C48.0357 62.2697 52.4799 66.7139 52.4799 72.1765C52.4799 74.868 51.397 77.3092 49.6494 79.0973V75.0215C49.6494 73.3883 48.7251 71.9661 47.3724 71.2515C47.5872 70.3966 47.5733 69.4893 47.313 68.608C46.8334 66.9723 45.4592 65.6555 43.8172 65.255C42.2933 64.8785 40.7276 65.207 39.5178 66.1522C38.3117 67.0987 37.6199 68.5209 37.6199 70.0536C37.6199 70.4624 37.6692 70.8629 37.7671 71.2509C37.3918 71.4473 37.0494 71.6994 36.7594 71.9983C35.957 72.7792 35.497 73.8818 35.497 75.0209V79.0967C33.7494 77.3093 32.6665 74.8679 32.6665 72.1759C32.6665 66.7138 37.1107 62.2698 42.5733 62.2698L42.5731 62.2697ZM12.8529 62.2697C18.3155 62.2697 22.7597 66.7139 22.7597 72.1765C22.7597 77.639 18.3155 82.0832 12.8529 82.0832C7.39042 82.0832 2.94622 77.639 2.94622 72.1765C2.94622 66.7139 7.39042 62.2697 12.8529 62.2697Z" fill="#009A77"/>
<path d="M69.4629 73.5925H72.2934C72.766 73.5925 73.2076 73.3562 73.4711 72.9626L76.3016 68.7169L73.9468 67.1475L71.5365 70.7621H69.4629L69.4629 73.5925Z" fill="#009A77"/>
<path d="M11.5801 73.5921H14.1276C14.9849 73.5921 15.6844 74.2277 15.6844 75.0073C15.6844 75.787 14.9849 76.4226 14.1276 76.4226H8.60812V79.2531H14.1276C16.5461 79.2531 18.5149 77.3482 18.5149 75.0073C18.5149 72.6664 16.5461 70.7616 14.1276 70.7616H11.5801C10.7228 70.7616 10.0234 70.126 10.0234 69.3463C10.0234 68.5667 10.7228 67.9311 11.5801 67.9311H17.0996V65.1006H11.5801C9.1616 65.1006 7.19287 67.0054 7.19287 69.3463C7.19287 71.6872 9.1616 73.5921 11.5801 73.5921Z" fill="#009A77"/>
<path d="M42.5731 9.19824C37.501 9.19824 33.374 13.3253 33.374 18.3974C33.374 23.4694 37.501 27.5965 42.5731 27.5965C47.6452 27.5965 51.7722 23.4694 51.7722 18.3974C51.7722 13.3253 47.6452 9.19824 42.5731 9.19824ZM42.5731 24.766C39.0622 24.766 36.2045 21.9083 36.2045 18.3974C36.2045 14.8864 39.0622 12.0287 42.5731 12.0287C46.0841 12.0287 48.9417 14.8864 48.9417 18.3974C48.9417 21.9083 46.0841 24.766 42.5731 24.766Z" fill="#009A77"/>
<path d="M23.1527 37.7747L25.1947 35.8149C20.8863 31.3253 18.5133 25.421 18.5133 19.1894C18.5133 12.9579 20.8863 7.05368 25.1958 2.56225C25.6179 2.12188 25.7107 1.46101 25.4264 0.922022C25.1421 0.383096 24.5406 0.0867673 23.9417 0.185964L15.4502 1.60121L15.9158 4.39386L20.6627 3.60284C17.4291 8.12468 15.6828 13.5367 15.6828 19.1888C15.6828 26.1551 18.3363 32.7556 23.1527 37.7747V37.7747Z" fill="#009A77"/>
<path d="M60.9713 38.2114C61.1128 38.2114 61.2543 38.1899 61.3946 38.1463L69.886 35.4858L69.0394 32.7855L64.9789 34.0567C67.8946 29.686 69.4629 24.5461 69.4629 19.1903C69.4629 12.2247 66.8093 5.62353 61.9929 0.604492L59.9509 2.56433C64.2593 7.05398 66.6324 12.9589 66.6324 19.1898C66.6324 25.4213 64.2593 31.3256 59.9498 35.817C59.5025 36.2826 59.4273 36.9928 59.7685 37.5425C60.0319 37.9664 60.4919 38.2115 60.9714 38.2115L60.9713 38.2114Z" fill="#009A77"/>
</svg>
