<svg width="33" height="33" viewBox="0 0 152 86" fill="#009A77" xmlns="http://www.w3.org/2000/svg">
<path d="M151.097 37.4188C150.349 36.0442 149.047 35.0554 147.522 34.7022L145.632 34.2503C144.706 30.1697 143.093 26.2771 140.861 22.7378L141.911 21.0332C142.704 19.7217 142.914 18.139 142.491 16.6669C142.403 16.3811 142.266 16.1141 142.084 15.8777C141.189 14.6986 140.209 13.5847 139.153 12.5463C138.19 11.5627 137.167 10.6411 136.09 9.7834C135.774 9.45973 135.377 9.22748 134.94 9.11083C133.451 8.72725 131.869 8.96791 130.561 9.77605L128.914 10.7933C125.372 8.56962 121.48 6.95642 117.404 6.02236L116.934 4.06876C116.568 2.5954 115.612 1.33866 114.29 0.591301C114.02 0.44838 113.727 0.354848 113.424 0.314927C110.523 -0.0802213 107.582 -0.100182 104.675 0.25713C104.325 0.277097 103.983 0.371676 103.672 0.533502C102.296 1.2828 101.308 2.58379 100.954 4.10969L100.5 6.0076C96.4225 6.94081 92.5321 8.55285 88.9896 10.7785L87.285 9.72659V9.72554C85.9725 8.93527 84.3919 8.72508 82.9187 9.14651C82.6339 9.23268 82.3659 9.3714 82.1305 9.5532C80.9504 10.4486 79.8375 11.428 78.7981 12.4832C77.8155 13.4468 76.8928 14.4694 76.0363 15.5466C75.7126 15.8619 75.4793 16.2591 75.3626 16.6963C74.9791 18.1864 75.2197 19.767 76.0289 21.0752L77.0504 22.7272C75.8419 24.6556 74.8109 26.69 73.9692 28.8046C73.2735 30.5711 72.706 32.3851 72.2699 34.2325L70.3163 34.7022C68.843 35.068 67.5851 36.0243 66.8389 37.3463C66.6959 37.6153 66.6024 37.9085 66.5625 38.2101C66.3786 39.5783 66.2777 40.9571 66.2588 42.3381C66.3702 46.7539 65.1774 51.1046 62.8297 54.8468C60.4831 58.5879 57.0847 61.5558 53.0608 63.3769C49.3006 65.0404 45.1613 65.6573 41.0796 65.1644C36.9969 64.6716 33.1245 63.0857 29.8676 60.5751C25.0461 56.8601 21.9281 51.3576 21.2208 45.3131C20.5125 39.2683 22.2738 33.1931 26.1063 28.4652C29.9378 23.7373 35.5169 20.756 41.5765 20.198C47.6369 19.6389 53.6669 21.5494 58.2982 25.4976C59.243 26.3068 60.4568 26.7334 61.7001 26.6903C62.9433 26.6483 64.1255 26.1407 65.0134 25.2685L68.6211 21.7733C69.6342 20.7917 70.189 19.4298 70.1502 18.0195C70.1123 16.6092 69.4849 15.2797 68.4204 14.354C63.7533 10.2661 58.1459 7.39721 52.099 6.00472L51.6324 4.05847V4.05952C51.2656 2.58616 50.3104 1.32834 48.9884 0.580985C48.7183 0.438064 48.4251 0.344534 48.1224 0.305662C45.2261 -0.0852627 42.291 -0.101027 39.3916 0.257321C39.0406 0.277288 38.6981 0.371867 38.387 0.533693C37.0124 1.28299 36.0235 2.58398 35.6703 4.10988L35.2185 6.00042C31.1368 6.9294 27.2431 8.54672 23.7059 10.7829L22.0014 9.73311L22.0004 9.73416C20.6888 8.94389 19.1072 8.7337 17.634 9.15408C17.3492 9.2413 17.0823 9.37897 16.8459 9.56077C15.6668 10.4561 14.5528 11.4356 13.5134 12.4908C12.5308 13.4544 11.6082 14.4769 10.7516 15.5542C10.4279 15.8705 10.1956 16.2677 10.079 16.7038C9.68912 18.1982 9.92767 19.785 10.7389 21.0987L11.7436 22.7454C9.51151 26.2848 7.89839 30.1773 6.97267 34.2579L5.02641 34.7245V34.7256C3.55515 35.0892 2.2982 36.0413 1.54895 37.3591C1.40603 37.6292 1.3125 37.9224 1.27258 38.2251C1.07712 39.7068 0.977269 41.1981 0.974121 42.6923C0.978325 44.1184 1.0624 45.5435 1.22528 46.961C1.24525 47.3109 1.33878 47.6535 1.50166 47.9656C2.24988 49.3402 3.55195 50.3291 5.07677 50.6823L6.96731 51.1342C7.89314 55.2148 9.50626 59.1073 11.7383 62.6467L10.6884 64.3512C9.89501 65.6627 9.68481 67.2454 10.1083 68.7175C10.1956 69.0034 10.3332 69.2703 10.515 69.5067C11.4114 70.6858 12.3909 71.7998 13.4461 72.8381C14.4098 73.8217 15.4323 74.7434 16.5095 75.601C16.8248 75.9247 17.222 76.157 17.6592 76.2736C19.1567 76.6677 20.7498 76.4291 22.0656 75.6137L23.7123 74.609H23.7134C27.256 76.8327 31.1464 78.4459 35.2238 79.3799L35.6935 81.3335L35.6925 81.3325C36.0592 82.8059 37.0155 84.0637 38.3365 84.811C38.6066 84.9539 38.8998 85.0475 39.2035 85.0874C42.0977 85.471 45.0306 85.4846 47.9291 85.1273C48.2791 85.1074 48.6217 85.0128 48.9327 84.851C50.3084 84.1017 51.2962 82.8007 51.6505 81.2748L52.1045 79.3769C56.1818 78.4437 60.0723 76.8316 63.6148 74.6059L65.3194 75.6579V75.6589C66.6309 76.4513 68.2136 76.6615 69.6857 76.2379C69.9705 76.1518 70.2384 76.0131 70.4738 75.8313C71.654 74.9359 72.7669 73.9565 73.8063 72.9013C74.7889 71.9376 75.7116 70.9151 76.5681 69.8378C76.8918 69.5226 77.1251 69.1254 77.2418 68.6882C77.6253 67.198 77.3847 65.6175 76.5755 64.3092L75.554 62.6572C76.7625 60.7288 77.7935 58.6944 78.6352 56.5799C79.3309 54.8133 79.8984 52.9994 80.3345 51.152L82.2881 50.6822C83.7614 50.3165 85.0193 49.3602 85.7655 48.0382C85.9085 47.7692 86.002 47.476 86.0419 47.1744C86.2258 45.8061 86.3267 44.4273 86.3456 43.0464C86.2342 38.6306 87.427 34.2809 89.7736 30.5387C92.1202 26.7966 95.5179 23.8297 99.5406 22.0076C103.302 20.344 107.441 19.7261 111.524 20.219C115.607 20.7129 119.48 22.2987 122.737 24.8092C127.559 28.5242 130.677 34.0266 131.384 40.0711C132.092 46.1159 130.331 52.1911 126.498 56.919C122.667 61.6469 117.088 64.6283 111.028 65.1862C104.968 65.7453 98.9377 63.8348 94.3064 59.8866C93.3627 59.0754 92.1479 58.6487 90.9046 58.6907C89.6603 58.7328 88.4781 59.2414 87.5912 60.1157L83.9835 63.611C82.9705 64.5925 82.4156 65.9544 82.4545 67.3647C82.4923 68.775 83.1197 70.1045 84.1843 71.0302C88.8514 75.1181 94.4587 77.987 100.506 79.3795L100.972 81.3258V81.3247C101.339 82.7981 102.294 84.0559 103.616 84.8032C103.886 84.9462 104.18 85.0397 104.482 85.0786C105.962 85.2751 107.452 85.3749 108.944 85.3781C110.371 85.3728 111.797 85.2898 113.213 85.1269C113.564 85.1069 113.907 85.0124 114.218 84.8505C115.592 84.1012 116.581 82.8002 116.934 81.2743L117.386 79.3838C121.467 78.459 125.36 76.8459 128.899 74.6139L130.603 75.6638L130.604 75.6627C131.915 76.4561 133.497 76.6663 134.971 76.2428C135.255 76.1556 135.522 76.0179 135.759 75.8361C136.938 74.9407 138.052 73.9613 139.091 72.9061C140.074 71.9425 140.997 70.9199 141.853 69.8427C142.177 69.5264 142.409 69.1292 142.526 68.693C142.909 67.2029 142.67 65.6213 141.86 64.3141L140.856 62.6673V62.6663C143.088 59.128 144.702 55.2344 145.627 51.1537L147.573 50.6871C149.046 50.3204 150.304 49.3641 151.05 48.0431C151.193 47.773 151.287 47.4798 151.327 47.1761C151.525 45.6902 151.626 44.1915 151.631 42.692C151.626 41.2659 151.542 39.8408 151.379 38.4233C151.358 38.0723 151.262 37.7297 151.098 37.4186L151.097 37.4188ZM146.442 45.7702C146.411 45.7702 146.379 45.7934 146.346 45.8007L142.903 46.6288H142.905C141.939 46.8621 141.202 47.6429 141.023 48.6202C140.203 53.1308 138.422 57.4121 135.804 61.1752C135.235 61.996 135.207 63.0753 135.731 63.9244L137.569 66.9026C137.597 66.9499 137.622 67.0003 137.644 67.0508C136.985 67.8515 136.284 68.6155 135.543 69.3406C134.832 70.0678 134.077 70.7499 133.283 71.3846C133.251 71.3731 133.221 71.3584 133.192 71.3394L130.179 69.4815C129.328 68.9623 128.252 68.9907 127.43 69.554C123.667 72.1728 119.386 73.9531 114.875 74.7748C113.898 74.9524 113.117 75.689 112.884 76.6548L112.06 80.0776C112.06 80.1228 112.035 80.1659 112.025 80.2006C109.98 80.4181 107.918 80.4181 105.873 80.2006C105.873 80.1701 105.85 80.1375 105.843 80.105L105.015 76.6622C104.781 75.6965 104.001 74.9598 103.023 74.7822C97.2541 73.7187 91.8808 71.1083 87.4787 67.2295L91.0444 63.7144V63.7133C96.7055 68.5779 104.106 70.9235 111.536 70.2068C117.727 69.6047 123.535 66.9387 128.028 62.6383C132.522 58.3379 135.44 52.6517 136.314 46.4934C136.996 41.6708 136.382 36.7548 134.536 32.2475C132.689 27.7402 129.677 23.8057 125.808 20.8475C121.845 17.8209 117.148 15.903 112.199 15.2893C107.25 14.6756 102.228 15.3902 97.6451 17.3575C92.706 19.5507 88.5224 23.1532 85.6198 27.7118C82.7173 32.2705 81.2228 37.5849 81.3248 42.9886C81.3248 43.8997 81.2596 44.834 81.1619 45.7682C81.1314 45.7682 81.0989 45.7913 81.0663 45.7987L77.6235 46.6268C76.6609 46.859 75.9242 47.6346 75.7424 48.6077C74.9028 53.1172 73.1257 57.4006 70.5279 61.1805C69.9635 62.0002 69.9373 63.0752 70.4596 63.9221L72.2976 66.9003C72.3259 66.9476 72.3512 66.9969 72.3732 67.0484C71.7143 67.8482 71.0123 68.6132 70.2714 69.3383C69.561 70.0645 68.8055 70.7476 68.011 71.3823C67.9795 71.3708 67.949 71.355 67.9206 71.3371L64.9078 69.4792V69.4781C64.0576 68.959 62.9804 68.9874 62.1586 69.5517C58.3889 72.1589 54.1109 73.9393 49.6036 74.7746C48.6315 74.9564 47.857 75.691 47.6247 76.6525L46.8008 80.0754C46.8008 80.1206 46.7756 80.1637 46.7661 80.1983V80.1973C44.7211 80.4159 42.6592 80.4159 40.6143 80.1973C40.6143 80.1668 40.5912 80.1342 40.5838 80.1017L39.7557 76.6589V76.66C39.5235 75.6984 38.749 74.9638 37.7769 74.782C33.2707 73.9465 28.9915 72.1663 25.223 69.5591C24.3991 68.9843 23.3135 68.9559 22.4611 69.4866L19.4523 71.3162C19.405 71.3446 19.3556 71.3698 19.3041 71.3918C18.5033 70.7329 17.7394 70.032 17.0142 69.2901C16.287 68.5797 15.605 67.8251 14.9703 67.0307C14.9818 66.9991 14.9976 66.9687 15.0154 66.9403L16.8734 63.9274C17.3978 63.0752 17.3663 61.9928 16.7935 61.1721C14.1747 57.41 12.3944 53.1287 11.5728 48.6181C11.3952 47.6408 10.6585 46.86 9.69273 46.6267L6.26989 45.8028C6.2247 45.8028 6.18161 45.7776 6.14693 45.7681C6.0492 44.6311 5.99665 43.6411 5.99665 42.6921C5.9977 41.6643 6.0534 40.6376 6.16164 39.616C6.19212 39.616 6.2247 39.5929 6.25727 39.5855L9.70003 38.7574C10.6658 38.5241 11.4025 37.7433 11.5811 36.766C12.4019 32.2555 14.1821 27.9742 16.8008 24.2121C17.3693 23.3913 17.3977 22.3121 16.8733 21.4618L15.0353 18.4837C15.008 18.4364 14.9828 18.387 14.9607 18.3355C15.6196 17.5358 16.3206 16.7707 17.0614 16.0456C17.7729 15.3194 18.5274 14.6364 19.3219 14.0016C19.3534 14.0132 19.3839 14.0289 19.4123 14.0468L22.4251 15.9048V15.9058C23.2774 16.4355 24.364 16.4071 25.187 15.8322C28.9501 13.2134 33.2314 11.4331 37.742 10.6126C38.7193 10.435 39.5001 9.69725 39.7334 8.73147L40.5573 5.30863C40.5573 5.26344 40.5825 5.22035 40.592 5.18567V5.18672C42.637 4.96814 44.6989 4.96814 46.7438 5.18672C46.7438 5.2172 46.7669 5.24978 46.7743 5.28235L47.6024 8.72511V8.72406C47.8357 9.68981 48.6165 10.4265 49.5938 10.6052C55.3631 11.6676 60.7364 14.279 65.1385 18.1578L61.5728 21.673C55.9095 16.8695 48.5503 14.5499 41.156 15.2384C33.7631 15.9277 26.9586 19.5659 22.2799 25.3331C17.6002 31.0994 15.4429 38.5082 16.293 45.8844C17.1432 53.2617 20.9294 59.9852 26.7967 64.5367C30.7605 67.5621 35.4569 69.479 40.4057 70.0926C45.3545 70.7063 50.3764 69.9928 54.9596 68.0266C59.8987 65.8334 64.0823 62.2309 66.9849 57.6722C69.8874 53.1135 71.3819 47.7992 71.2799 42.3955C71.2799 41.4844 71.3451 40.5501 71.4428 39.6159C71.4733 39.6159 71.5058 39.5928 71.5384 39.5854L74.9812 38.7573C75.9438 38.5251 76.6805 37.7495 76.8623 36.7764C77.7051 32.2658 79.4853 27.9824 82.0873 24.2036C82.6517 23.3839 82.6779 22.3088 82.1556 21.4619L80.3197 18.4838C80.2914 18.4365 80.2661 18.3871 80.2441 18.3356C80.903 17.5359 81.605 16.7709 82.3459 16.0457C83.0563 15.3196 83.8118 14.6365 84.6063 14.0017C84.6378 14.0133 84.6683 14.0291 84.6967 14.0469L87.7095 15.9049V15.906C88.5618 16.4303 89.6432 16.3988 90.4638 15.825C94.2364 13.2157 98.5199 11.4356 103.03 10.6021C104.002 10.4203 104.777 9.68576 105.009 8.72417L105.833 5.30133C105.833 5.25614 105.858 5.21306 105.868 5.17838C107.913 4.96084 109.975 4.96084 112.02 5.17838C112.02 5.20885 112.043 5.24143 112.05 5.27401L112.878 8.71676C113.111 9.67727 113.885 10.4129 114.857 10.5947C119.369 11.4302 123.652 13.2125 127.425 15.8249C128.247 16.3882 129.323 16.4176 130.174 15.8974L133.152 14.0594C133.199 14.0321 133.249 14.0069 133.3 13.9848C134.101 14.6437 134.865 15.3446 135.59 16.0866C136.317 16.797 136.999 17.5515 137.634 18.346C137.623 18.3775 137.607 18.408 137.589 18.4363L135.731 21.4492C135.203 22.3036 135.235 23.3891 135.811 24.2121C138.43 27.9742 140.21 32.2555 141.032 36.766C141.209 37.7434 141.946 38.5242 142.912 38.7575L146.334 39.5814C146.38 39.5814 146.423 39.6066 146.457 39.616C146.563 40.7531 146.616 41.743 146.616 42.6921C146.612 43.7199 146.554 44.7466 146.443 45.7682L146.442 45.7702Z" fill="#009A77"/>
<path d="M108.943 57.7571C112.939 57.7571 116.772 56.1703 119.596 53.3445C122.422 50.5197 124.009 46.6871 124.009 42.6915C124.009 38.6959 122.422 34.8634 119.596 32.0386C116.772 29.2127 112.939 27.626 108.943 27.626C104.948 27.626 101.116 29.2128 98.2905 32.0386C95.4657 34.8634 93.8779 38.6959 93.8779 42.6915C93.8821 46.6861 95.4711 50.5154 98.2948 53.3402C101.12 56.165 104.949 57.7528 108.943 57.7571V57.7571ZM108.943 32.6482C111.607 32.6482 114.162 33.7064 116.045 35.5897C117.93 37.4729 118.988 40.0276 118.988 42.6915C118.988 45.3555 117.93 47.9102 116.045 49.7933C114.162 51.6765 111.607 52.7349 108.943 52.7349C106.281 52.7349 103.726 51.6767 101.842 49.7933C99.9585 47.9102 98.9001 45.3555 98.9001 42.6915C98.9001 40.0276 99.9584 37.4729 101.842 35.5897C103.726 33.7065 106.281 32.6482 108.943 32.6482Z" fill="#009A77"/>
<path d="M43.6608 27.626C39.6652 27.626 35.8326 29.2128 33.0078 32.0386C30.1819 34.8634 28.5952 38.6959 28.5952 42.6915C28.5952 46.6871 30.1821 50.5197 33.0078 53.3445C35.8326 56.1704 39.6652 57.7571 43.6608 57.7571C47.6564 57.7571 51.4879 56.1703 54.3138 53.3445C57.1386 50.5197 58.7264 46.6871 58.7264 42.6915C58.7222 38.697 57.1332 34.8677 54.3095 32.0429C51.4847 29.2181 47.6553 27.6303 43.6608 27.626V27.626ZM43.6608 52.7349C40.9968 52.7349 38.4422 51.6767 36.559 49.7933C34.6747 47.9102 33.6164 45.3555 33.6164 42.6915C33.6164 40.0276 34.6746 37.4729 36.559 35.5897C38.4422 33.7065 40.9969 32.6482 43.6608 32.6482C46.3237 32.6482 48.8786 33.7064 50.7626 35.5897C52.6458 37.4729 53.7041 40.0276 53.7041 42.6915C53.7041 45.3555 52.6459 47.9102 50.7626 49.7933C48.8783 51.6765 46.3236 52.7349 43.6608 52.7349V52.7349Z" fill="#009A77"/>
</svg>
