<svg width="25" height="25" viewBox="0 0 26 25" fill="#009A77" xmlns="http://www.w3.org/2000/svg">
<path d="M19.25 24.875L15.4688 20.75L17.0637 19.155L19.25 21.3413L24.1863 16.405L25.7812 18.3438L19.25 24.875ZM13.475 24.875H2.75C2.02065 24.875 1.32118 24.5853 0.805456 24.0695C0.289731 23.5538 0 22.8543 0 22.125V2.875C0 1.34875 1.22375 0.125 2.75 0.125H22C22.7293 0.125 23.4288 0.414731 23.9445 0.930456C24.4603 1.44618 24.75 2.14565 24.75 2.875V13.6C23.54 12.8988 22.1238 12.5 20.625 12.5L19.25 12.61V11.125H5.5V13.875H16.0737C14.9361 14.625 14.0025 15.6458 13.3569 16.8458C12.7113 18.0458 12.3739 19.3874 12.375 20.75C12.375 22.2488 12.7738 23.665 13.475 24.875ZM12.375 16.625H5.5V19.375H12.375V16.625ZM19.25 5.625H5.5V8.375H19.25" fill="#009A77"/>
</svg>
