<svg width="102" height="110" viewBox="0 0 102 110" fill="none" xmlns="http://www.w3.org/2000/svg">
<g filter="url(#filter0_d_1372_9444)">
<path d="M30.8628 73.2128C26.7873 72.3614 24.1062 68.6374 24.5356 64.4865L26.037 52.6746C26.895 45.4389 31.7209 39.4792 38.2628 36.9257C36.5468 35.4359 35.1531 33.6271 34.0803 31.605C33.437 31.392 32.6859 31.2858 31.9356 31.1797C29.8978 31.9249 27.7531 32.3503 25.6084 32.3503C23.4637 32.3503 21.2112 31.9249 19.2811 31.1797C12.4175 31.8181 6.73353 37.0326 5.98262 43.9491L4.37352 55.7609C4.15882 57.2507 5.12459 58.7405 6.73289 59.0596C8.87759 59.4849 11.1301 59.8048 13.3819 60.124L14.9902 87.8978C15.0972 90.0259 16.9202 91.7287 19.1728 91.7287H31.8272C33.007 91.7287 34.0798 91.1965 34.8301 90.452L33.8651 73.7447C32.7938 73.6378 31.8288 73.4248 30.863 73.2125L30.8628 73.2128Z" fill="white"/>
<path d="M25.5006 27.3486C27.86 27.3486 30.2196 26.7102 32.1496 25.6458C31.9349 24.7944 31.9349 23.8368 31.9349 22.8792C31.9349 17.3455 34.4013 12.2379 38.3699 8.83229C36.4399 3.72465 31.3994 0 25.5008 0C17.886 0 11.6666 6.17196 11.6666 13.7269C11.6666 21.2826 17.8868 27.3486 25.5008 27.3486L25.5006 27.3486Z" fill="white"/>
<path d="M97.0327 55.7609L95.6383 43.9491C94.7802 37.0326 89.2032 31.818 82.3397 31.1797C80.3019 31.9249 78.1572 32.3503 76.0125 32.3503C73.76 32.3503 71.6153 31.9249 69.6853 31.1797C68.9342 31.1797 68.1839 31.3927 67.5406 31.605C66.4678 33.6271 65.0741 35.4359 63.358 36.8195C69.7931 39.4798 74.6189 45.3327 75.4769 52.6752L76.8713 64.4871C77.4076 68.6372 74.7266 72.3618 70.6511 73.2133C69.6861 73.4264 68.7211 73.6387 67.6482 73.8517L66.6832 90.5589C67.4343 91.3042 68.5063 91.8357 69.6861 91.8357H82.3405C84.593 91.8357 86.416 90.1329 86.5231 88.0048L88.1314 60.231C90.3839 59.9118 92.6357 59.5926 94.7804 59.1665C96.2818 58.7405 97.2468 57.3569 97.0329 55.7609L97.0327 55.7609Z" fill="white"/>
<path d="M69.2564 25.7528C71.2942 26.8172 73.5458 27.4556 75.9053 27.4556C83.5201 27.4556 89.7395 21.2836 89.7395 13.7287C89.7403 6.17294 83.5199 0.000976562 75.9061 0.000976562C70.0075 0.000976562 64.967 3.72582 63.037 8.93949C67.0048 12.4511 69.472 17.4527 69.472 22.9864C69.4713 23.944 69.4713 24.7953 69.2566 25.753L69.2564 25.7528Z" fill="white"/>
<path d="M71.8302 65.0188L70.4358 53.2069C69.5778 46.2904 64.1086 41.0758 57.2449 40.4375C55.2071 41.1828 53.0624 41.6081 50.8099 41.6081C48.5574 41.6081 46.3056 41.1828 44.3748 40.4375C37.6182 41.0759 32.0421 46.3964 31.1839 53.2069L29.7895 65.0188C29.5748 66.5085 30.5406 67.9983 32.1489 68.3174C34.2936 68.8496 36.5461 69.1688 38.7979 69.488L40.4062 97.1554C40.5132 99.2835 42.3363 101.092 44.5888 101.092H57.2433C59.388 101.092 61.3187 99.3897 61.4258 97.1554L63.0342 69.488C65.2867 69.1688 67.5384 68.8496 69.6831 68.3174C70.9721 68.1043 72.0448 66.6146 71.8301 65.0188H71.8302Z" fill="white"/>
<path d="M64.5376 22.9855C64.5376 30.5665 58.3442 36.7124 50.7035 36.7124C43.0627 36.7124 36.8693 30.5663 36.8693 22.9855C36.8693 15.4039 43.0627 9.25781 50.7035 9.25781C58.3442 9.25781 64.5376 15.4039 64.5376 22.9855Z" fill="white"/>
</g>
<defs>
<filter id="filter0_d_1372_9444" x="0.343811" y="0" width="100.719" height="109.093" filterUnits="userSpaceOnUse" color-interpolation-filters="sRGB">
<feFlood flood-opacity="0" result="BackgroundImageFix"/>
<feColorMatrix in="SourceAlpha" type="matrix" values="0 0 0 0 0 0 0 0 0 0 0 0 0 0 0 0 0 0 127 0" result="hardAlpha"/>
<feOffset dy="4"/>
<feGaussianBlur stdDeviation="2"/>
<feComposite in2="hardAlpha" operator="out"/>
<feColorMatrix type="matrix" values="0 0 0 0 0 0 0 0 0 0 0 0 0 0 0 0 0 0 0.25 0"/>
<feBlend mode="normal" in2="BackgroundImageFix" result="effect1_dropShadow_1372_9444"/>
<feBlend mode="normal" in="SourceGraphic" in2="effect1_dropShadow_1372_9444" result="shape"/>
</filter>
</defs>
</svg>
