<svg width="102" height="100" viewBox="0 0 102 100" fill="none" xmlns="http://www.w3.org/2000/svg">
<g filter="url(#filter0_d_1374_9457)">
<path fill-rule="evenodd" clip-rule="evenodd" d="M23.2276 10.3462C19.3905 10.3462 16.2891 13.4271 16.2891 17.2274C16.2891 21.0285 19.3898 24.1101 23.2276 24.1101C27.0562 24.1101 30.1563 21.0285 30.1563 17.2274C30.157 13.4271 27.0549 10.3462 23.2276 10.3462ZM26.3808 5.01653C27.5631 5.31572 28.6759 5.77909 29.6919 6.37955L33.8438 3.39962L37.1633 6.69339L34.1594 10.8088C34.7638 11.8219 35.2287 12.9275 35.5352 14.0971L40.5894 14.9V19.5569L35.5352 20.3598C35.228 21.5308 34.7645 22.6349 34.1594 23.6481L37.1633 27.7635L33.8438 31.0573L29.6919 28.0773C28.6751 28.6778 27.5631 29.1412 26.3808 29.4404L25.5744 34.4569H20.8792L20.0644 29.4404C18.8905 29.1412 17.7778 28.6778 16.7533 28.0773L12.6099 31.0573L9.29035 27.7635L12.286 23.6481C11.6816 22.635 11.2167 21.5293 10.9194 20.3598L5.86507 19.5569V14.9L10.9194 14.0971C11.2181 12.9275 11.6816 11.8225 12.286 10.8088L9.29035 6.69339L12.6099 3.39962L16.7533 6.37955C17.7785 5.77909 18.8905 5.3157 20.0644 5.01653L20.8792 0H25.5744L26.3808 5.01653ZM79.1245 80.9217L83.066 84.8348C83.6536 85.4123 84.5904 85.4123 85.1774 84.8348C85.2132 84.7945 85.2475 84.7541 85.2819 84.711L90.9063 77.8158C91.4238 77.1813 91.327 76.251 90.6875 75.739C90.048 75.2255 89.1105 75.3243 88.5944 75.9581L84.0036 81.5863L81.2268 78.8332C80.649 78.2563 79.7023 78.2563 79.1238 78.8332C78.546 79.41 78.546 80.3451 79.1245 80.9219L79.1245 80.9217ZM46.021 18.7067H43.5675V15.7517H46.021V18.7067ZM75.2884 48.9174L74.5703 51.8612H86.108V51.8674C89.1386 51.8674 91.881 50.6442 93.8696 48.6723C95.8582 46.7004 97.0938 43.9759 97.0938 40.9749L97.0931 22.8763C97.0931 20.9129 96.2867 19.131 94.9817 17.8409C93.7553 16.6198 92.0823 15.8385 90.2254 15.7578V18.7169C91.259 18.7948 92.1882 19.2436 92.8802 19.9296C93.6424 20.6859 94.1157 21.7283 94.1157 22.8763V40.9749C94.1157 43.1597 93.2133 45.1432 91.7681 46.5828C90.3138 48.0216 88.3167 48.9136 86.1094 48.9136V48.9185L75.2884 48.9174ZM15.2548 81.8159V78.8616H11.5587C10.3933 78.8616 9.3421 78.392 8.58062 77.6364C7.82752 76.8801 7.35421 75.837 7.35421 74.6883V59.8056C7.35421 57.6215 8.24756 55.6373 9.70184 54.199C11.147 52.7608 13.1448 51.8681 15.3523 51.8681V51.8633H26.1714L26.8894 48.9195H15.3517V48.9146C12.3295 48.9146 9.5787 50.1378 7.59009 52.1097C5.60147 54.0829 4.37506 56.8062 4.37506 59.8057V74.6903C4.37506 76.6537 5.18146 78.4356 6.47802 79.7263C7.78297 81.0155 9.57044 81.817 11.5591 81.817H15.2552L15.2548 81.8159ZM70.6444 81.8159H64.2137V78.8616H70.6444V81.8159ZM39.2212 78.8623C40.0451 78.8623 40.7106 79.524 40.7106 80.3402C40.7106 81.1556 40.0444 81.8166 39.2212 81.8166L25.1871 81.8159C24.3723 81.8159 23.6977 81.1542 23.6977 80.3395C23.6977 79.524 24.3723 78.8616 25.1871 78.8616L39.2212 78.8623ZM54.2713 78.8623H44.9165C44.1017 78.8623 43.4264 79.524 43.4264 80.3402C43.4264 81.1556 44.101 81.8166 44.9165 81.8166H54.2713C55.0945 81.8166 55.7607 81.1549 55.7607 80.3402C55.7607 79.5233 55.0946 78.8623 54.2713 78.8623ZM51.2399 51.8685H65.274C66.0972 51.8685 66.7634 51.2068 66.7634 50.392C66.7634 49.5752 66.0973 48.9142 65.274 48.9142L51.2399 48.9149C50.416 48.9149 49.7506 49.5766 49.7506 50.3927C49.7513 51.2068 50.4174 51.8685 51.2399 51.8685ZM36.1905 51.8685H45.5453C46.3693 51.8685 47.0347 51.2068 47.0347 50.392C47.0347 49.5752 46.3686 48.9142 45.5453 48.9142H36.1905C35.3673 48.9142 34.7012 49.5759 34.7012 50.392C34.7019 51.2068 35.3666 51.8685 36.1905 51.8685ZM67.6658 15.7514H55.1913C54.3674 15.7514 53.7019 16.4131 53.7019 17.2292C53.7019 18.0447 54.3681 18.707 55.1913 18.707H67.6658C68.4897 18.707 69.1552 18.0454 69.1552 17.2292C69.1545 16.4138 68.4884 15.7514 67.6658 15.7514ZM81.0512 15.7514C81.8744 15.7514 82.5406 16.4131 82.5406 17.2292C82.5406 18.0447 81.8744 18.707 81.0512 18.707H72.7377C71.9145 18.707 71.2483 18.0454 71.2483 17.2292C71.2483 16.4138 71.9145 15.7514 72.7377 15.7514H81.0512ZM21.4215 71.7572H58.047C59.7986 71.7572 61.2354 73.1807 61.2354 74.9202V85.7562C61.2354 87.4964 59.7986 88.92 58.047 88.92H21.4215C19.6601 88.92 18.2331 87.4964 18.2331 85.7562L18.2324 74.9216C18.2324 73.1808 19.6607 71.7572 21.4215 71.7572H21.4215ZM32.8708 41.8101H72.0812C72.5531 41.8101 72.9577 42.0056 73.2466 42.3751C73.544 42.7432 73.6323 43.1815 73.5271 43.6372L70.0315 57.8457C69.8738 58.5158 69.2868 58.9729 68.5856 58.9729H29.3842C28.9109 58.9729 28.4993 58.7767 28.2104 58.4086C27.9215 58.0398 27.8247 57.6015 27.939 57.1465L31.4262 42.938C31.5917 42.2672 32.1786 41.8101 32.8707 41.8101H32.8708ZM52.1879 8.64801H84.0564C85.808 8.64801 87.2448 10.0716 87.2448 11.8118V22.6478C87.2448 24.3879 85.808 25.8115 84.0564 25.8115L52.1879 25.8122C50.4363 25.8122 48.9995 24.388 48.9995 22.6485V11.8124C48.9988 10.0716 50.4348 8.64799 52.1879 8.64799V8.64801ZM75.9712 69.0836H93.9635C95.2516 69.0836 96.3111 70.1329 96.3111 71.4152V89.268C96.3111 90.5503 95.2516 91.5996 93.9635 91.5996L75.9712 91.6003C74.6747 91.6003 73.6151 90.5511 73.6151 89.2687V71.4159C73.6144 70.1336 74.674 69.085 75.9712 69.085V69.0836Z" fill="white"/>
</g>
<defs>
<filter id="filter0_d_1374_9457" x="0.375061" y="0" width="100.719" height="99.6006" filterUnits="userSpaceOnUse" color-interpolation-filters="sRGB">
<feFlood flood-opacity="0" result="BackgroundImageFix"/>
<feColorMatrix in="SourceAlpha" type="matrix" values="0 0 0 0 0 0 0 0 0 0 0 0 0 0 0 0 0 0 127 0" result="hardAlpha"/>
<feOffset dy="4"/>
<feGaussianBlur stdDeviation="2"/>
<feComposite in2="hardAlpha" operator="out"/>
<feColorMatrix type="matrix" values="0 0 0 0 0 0 0 0 0 0 0 0 0 0 0 0 0 0 0.25 0"/>
<feBlend mode="normal" in2="BackgroundImageFix" result="effect1_dropShadow_1374_9457"/>
<feBlend mode="normal" in="SourceGraphic" in2="effect1_dropShadow_1374_9457" result="shape"/>
</filter>
</defs>
</svg>
