<svg width="102" height="105" viewBox="0 0 102 105" fill="none" xmlns="http://www.w3.org/2000/svg">
<g filter="url(#filter0_d_1374_9468)">
<path d="M48.8775 40.8774C47.953 41.7947 44.7684 43.9357 42.2001 43.4258C40.9675 43.2218 39.6317 42.8143 38.1934 42.2028C35.2145 41.1831 31.4127 39.8584 26.0711 39.8584C11.8935 39.8584 5.42139 49.2367 5.21592 49.6448C4.39396 50.7662 4.39395 52.2951 5.11345 53.5187L10.764 62.7953C11.4835 63.9166 12.6129 64.5281 13.8463 64.5281C14.4626 64.5281 15.182 64.324 15.6951 64.0183C16.3114 63.6108 16.8252 62.9986 17.1334 62.3871L17.0295 92.7647C17.0295 95.0074 18.7759 96.8419 21.0361 96.8419C23.2963 96.8419 25.0428 95.109 25.1451 92.8663L25.4533 67.2798H27.0972L31.7201 78.799L31.8226 92.8667C31.8226 95.1093 33.6714 96.8423 35.9316 96.8423C38.1918 96.8423 39.9383 95.0077 39.9383 92.7651L39.8365 77.9828C39.8365 77.4729 39.734 76.9631 39.5283 76.5557L34.9055 65.0364L34.803 48.8284C35.1111 48.9301 35.4193 49.0325 35.8306 49.1342C37.4746 49.7457 39.2209 50.3572 41.0699 50.663C47.6449 51.7843 53.2955 46.7891 53.9118 46.28C55.35 44.9546 55.4525 42.6102 54.1174 41.1831C52.6784 39.5526 50.4183 39.4502 48.8776 40.8773L48.8775 40.8774ZM17.3379 59.5321C17.2354 59.328 17.2354 59.2263 17.1322 59.0223L12.8174 51.9883C13.845 51.0711 15.3857 49.8473 17.4402 48.93L17.3379 59.5321Z" fill="white"/>
<path d="M34.1864 29.7657C34.1864 34.2134 30.553 37.8192 26.0707 37.8192C21.5882 37.8192 17.9543 34.2133 17.9543 29.7657C17.9543 25.3179 21.5883 21.7129 26.0707 21.7129C30.5532 21.7129 34.1864 25.3181 34.1864 29.7657Z" fill="white"/>
<path d="M91.4096 62.6918L96.8546 53.4153C97.4709 52.2939 97.4709 50.9686 96.7521 49.847C96.5464 49.4396 90.3827 40.1631 76.9243 40.1631C63.4659 40.1631 57.302 49.5414 57.0965 49.847C56.377 50.9684 56.377 52.2938 56.994 53.4153L62.2326 62.6918C62.9521 64.0172 64.4927 64.6288 65.931 64.323L62.0269 71.6626C61.5131 72.6822 62.2326 74.007 63.4652 74.007H68.1913L65.9312 92.5598C65.7255 94.7008 67.1638 96.5353 69.3214 96.8412C71.4792 97.1469 73.3281 95.6181 73.6363 93.4772L75.999 74.007H77.4372L77.7454 78.4924C77.7454 78.7982 77.8479 79.104 77.9511 79.4097L82.9853 94.1906C83.4991 95.8218 85.0398 96.8408 86.6837 96.8408C87.0943 96.8408 87.5057 96.7391 87.9163 96.6367C89.9708 95.9228 90.9985 93.7825 90.3821 91.7439L85.451 77.3704L85.1429 73.9047H90.1771C91.4097 73.9047 92.1292 72.6816 91.6153 71.5603L87.7112 64.2207C87.9169 64.2207 88.1218 64.3224 88.4307 64.3224C89.5594 64.4255 90.6894 63.8133 91.4089 62.6919L91.4096 62.6918ZM68.3971 59.6342C68.2946 59.5325 68.2946 59.4301 68.1914 59.3285L63.9791 52.0905C64.9035 51.1732 66.4449 49.9494 68.3963 48.9306L68.8069 58.8186L68.3971 59.6342ZM85.3487 59.2261C85.2462 59.3278 85.2462 59.4301 85.143 59.6335L84.6292 58.7162L85.0398 48.8282C87.0943 49.8479 88.5326 51.0709 89.457 51.9881L85.3487 59.2261Z" fill="white"/>
<path d="M84.9374 29.7657C84.9374 34.2134 81.3041 37.8192 76.8217 37.8192C72.3394 37.8192 68.7053 34.2133 68.7053 29.7657C68.7053 25.3179 72.3394 21.7129 76.8217 21.7129C81.3041 21.7129 84.9374 25.3181 84.9374 29.7657Z" fill="white"/>
<path d="M51.0349 28.3389C58.9457 28.3389 65.315 22.0189 65.315 14.1694C65.315 6.32 58.9457 0 51.0349 0C43.1241 0 36.7548 6.32 36.7548 14.1694C36.7548 22.0189 43.1249 28.3389 51.0349 28.3389ZM55.4529 7.84925C56.6854 7.84925 57.713 8.86893 57.713 10.0919C57.713 11.3149 56.6854 12.3345 55.4529 12.3345C54.2203 12.3345 53.1927 11.3149 53.1927 10.0919C53.0902 8.86815 54.1171 7.84925 55.4529 7.84925ZM55.1447 15.4946C55.6585 15.4946 56.0692 15.9021 56.0692 16.4119V17.0234C56.0692 19.5719 54.0146 21.6105 51.4463 21.6105H50.83C48.2616 21.6105 46.2071 19.5719 46.2071 17.0234V16.4119C46.2071 15.9021 46.6177 15.4946 47.1315 15.4946H55.1447ZM46.7201 7.84925C47.9527 7.84925 48.9802 8.86893 48.9802 10.0919C48.9802 11.3149 47.9526 12.3345 46.7201 12.3345C45.4876 12.3345 44.4599 11.3149 44.4599 10.0919C44.3574 8.86815 45.3851 7.84925 46.7201 7.84925Z" fill="white"/>
</g>
<defs>
<filter id="filter0_d_1374_9468" x="0.585999" y="0" width="100.719" height="104.88" filterUnits="userSpaceOnUse" color-interpolation-filters="sRGB">
<feFlood flood-opacity="0" result="BackgroundImageFix"/>
<feColorMatrix in="SourceAlpha" type="matrix" values="0 0 0 0 0 0 0 0 0 0 0 0 0 0 0 0 0 0 127 0" result="hardAlpha"/>
<feOffset dy="4"/>
<feGaussianBlur stdDeviation="2"/>
<feComposite in2="hardAlpha" operator="out"/>
<feColorMatrix type="matrix" values="0 0 0 0 0 0 0 0 0 0 0 0 0 0 0 0 0 0 0.25 0"/>
<feBlend mode="normal" in2="BackgroundImageFix" result="effect1_dropShadow_1374_9468"/>
<feBlend mode="normal" in="SourceGraphic" in2="effect1_dropShadow_1374_9468" result="shape"/>
</filter>
</defs>
</svg>
