<svg width="101" height="100" viewBox="0 0 101 100" fill="none" xmlns="http://www.w3.org/2000/svg">
<g filter="url(#filter0_d_1374_9460)">
<path d="M60.2484 36.6758L67.8722 33.4236V33.4229C68.4407 33.1813 68.8084 32.6261 68.8077 32.0128L68.7987 22.9983L65.7081 23.0011L65.7136 28.669V28.6697C60.3622 24.5002 53.7174 22.305 46.9155 22.4577C40.1133 22.6096 33.5755 25.1013 28.4195 29.5063L30.4388 31.8275V31.8268C35.1521 27.8017 41.1518 25.566 47.3703 25.5189C53.5888 25.471 59.6231 27.6142 64.3984 31.5667L59.0292 33.8571L60.2484 36.6758Z" fill="white"/>
<path d="M91.3878 0L83.1936 12.9191H83.1929C83.0453 12.8294 82.8928 12.7473 82.7362 12.6733C83.7041 11.854 84.2898 10.6765 84.3574 9.41637C84.4243 8.15616 83.9663 6.92326 83.0908 6.00816C82.216 5.09226 80.9998 4.5734 79.7277 4.5734C78.4556 4.5734 77.24 5.09226 76.3645 6.00816C75.4891 6.92338 75.031 8.15623 75.0979 9.41637C75.1655 10.6766 75.7512 11.8539 76.7191 12.6733C76.5625 12.7473 76.4101 12.8294 76.2624 12.9191L68.0675 0L64.2745 2.45333L73.5775 17.1199C73.5713 17.2226 73.5464 17.3198 73.5464 17.4245V44.4673H78.955V30.6673H80.5003V44.4673H85.9089V17.4245C85.9089 17.3205 85.8841 17.2226 85.8779 17.1199L95.1809 2.45333L91.3878 0Z" fill="white"/>
<path d="M28.7329 92L24.0969 73.6L29.9347 63.4628L25.6422 61.3334L26.3335 59.9616L31.34 62.445L38.0048 59.8L41.0954 46H4.00787L4.3942 92L28.7329 92ZM12.6899 87.8942L8.05393 82.442C7.93596 82.3037 7.8711 82.1292 7.8711 81.9478V75.1333H9.41642V81.6678L13.8696 86.9058L12.6899 87.8942ZM18.9981 53.0534H18.9974C19.1312 52.9541 19.2941 52.9007 19.461 52.9007H25.6423V54.434H19.719L13.7433 58.8814L12.8168 57.6534L18.9981 53.0534ZM7.09848 69.0007H10.1891V72.0674H7.09848V69.0007Z" fill="white"/>
<path d="M62.7297 61.3333L70.4563 64.4L78.1829 75.1333L73.5469 92H96.7266V46H59.6391L62.7297 61.3333ZM92.0907 52.1333H95.1813V55.2H92.0907V52.1333ZM90.5454 81.307H93.636V85.8528H90.5454V81.307ZM72.2877 56.0219L80.0143 59.0885C80.1902 59.1577 80.3344 59.2884 80.4186 59.4568L85.0545 68.6568L83.672 69.3427L79.1671 60.4035L71.7137 57.4449L72.2877 56.0219Z" fill="white"/>
<path d="M28.7329 44.4667H31.8235C31.8235 40.0843 29.4668 36.0348 25.6422 33.8436C21.8176 31.6524 17.1043 31.6524 13.2797 33.8436C9.45513 36.0348 7.09848 40.0843 7.09848 44.4667H10.1891C10.1891 41.1796 11.9566 38.1423 14.825 36.4995C17.6935 34.8559 21.2285 34.8559 24.0969 36.4995C26.9654 38.1423 28.7329 41.1796 28.7329 44.4667Z" fill="white"/>
<path d="M13.2797 44.4672H16.3704C16.3704 43.3713 16.9595 42.3589 17.9157 41.8113C18.8718 41.2637 20.0501 41.2637 21.0063 41.8113C21.9624 42.3589 22.5516 43.3713 22.5516 44.4672H25.6422C25.6422 42.2761 24.4639 40.2512 22.5516 39.1554C20.6393 38.0602 18.2827 38.0602 16.3704 39.1554C14.458 40.2513 13.2797 42.2762 13.2797 44.4672Z" fill="white"/>
</g>
<defs>
<filter id="filter0_d_1374_9460" x="0.00787354" y="0" width="100.719" height="100" filterUnits="userSpaceOnUse" color-interpolation-filters="sRGB">
<feFlood flood-opacity="0" result="BackgroundImageFix"/>
<feColorMatrix in="SourceAlpha" type="matrix" values="0 0 0 0 0 0 0 0 0 0 0 0 0 0 0 0 0 0 127 0" result="hardAlpha"/>
<feOffset dy="4"/>
<feGaussianBlur stdDeviation="2"/>
<feComposite in2="hardAlpha" operator="out"/>
<feColorMatrix type="matrix" values="0 0 0 0 0 0 0 0 0 0 0 0 0 0 0 0 0 0 0.25 0"/>
<feBlend mode="normal" in2="BackgroundImageFix" result="effect1_dropShadow_1374_9460"/>
<feBlend mode="normal" in="SourceGraphic" in2="effect1_dropShadow_1374_9460" result="shape"/>
</filter>
</defs>
</svg>
