<svg width="103" height="101" viewBox="0 0 103 101" fill="none" xmlns="http://www.w3.org/2000/svg">
<g filter="url(#filter0_d_1373_9452)">
<path d="M96.2257 61.3369C94.891 60.4893 93.2333 60.3793 91.7947 61.0387C91.7361 61.0657 91.6797 61.0961 91.6246 61.13L73.3185 72.4471C72.4768 71.7192 71.3888 71.2998 70.2411 71.2998H60.6293C59.5009 67.7217 54.521 65.0999 48.3717 65.0999C42.5725 65.0999 34.7598 68.7929 33.0777 72.8498H29.3385C28.6914 71.0493 26.9738 69.7498 24.9402 69.7498H6.19497C5.33234 69.7498 4.63287 70.4439 4.63287 71.2998V91.4497C4.63287 92.3057 5.33234 92.9997 6.19497 92.9997H24.9402C26.9745 92.9997 28.6921 91.6995 29.3392 89.8983L34.1719 89.8935L68.5382 92.9935C68.5849 92.9976 68.6316 92.9997 68.679 92.9997C69.0605 92.9997 69.4308 92.8613 69.7181 92.6066L96.6969 68.7633C97.7527 67.8776 98.3594 66.5817 98.3594 65.2024C98.3594 63.6289 97.5616 62.1834 96.2255 61.3365L96.2257 61.3369ZM94.6497 66.4229L68.1458 89.8446L34.3133 86.7993H29.627V75.9494H34.3133C35.176 75.9494 35.8754 75.2553 35.8754 74.3994C35.8754 72.2979 42.621 68.1994 48.3722 68.1994C53.896 68.1994 57.7448 70.6504 57.7448 72.8494C57.7448 73.7053 58.4443 74.3994 59.3069 74.3994H70.2416C70.81 74.3994 71.3358 74.7121 71.6168 75.2166C71.7368 75.4415 71.8037 75.701 71.8037 75.9494C71.8037 76.3625 71.6441 76.7451 71.326 77.0531C71.0436 77.3409 70.658 77.4994 70.2416 77.4994H51.4964C50.6338 77.4994 49.9343 78.1934 49.9343 79.0494C49.9343 79.9053 50.6338 80.5993 51.4964 80.5993H70.2416C71.5081 80.5993 72.6866 80.1081 73.5353 79.2445C74.4328 78.3754 74.9279 77.2059 74.9279 75.9493C74.9279 75.6857 74.8749 75.4255 74.8296 75.1653L93.1803 63.8199C93.6329 63.6365 94.1245 63.6829 94.5436 63.9479C94.9822 64.2275 95.2347 64.6849 95.2347 65.2073C95.2347 65.6668 95.0325 66.0999 94.6489 66.4224L94.6497 66.4229Z" fill="white"/>
<path d="M25.2957 50.7247C24.5634 51.6104 23.9407 52.5661 23.4497 53.5568C22.3806 55.6777 21.8165 58.0608 21.8165 60.4501C21.8165 61.3061 22.5159 62.0001 23.3786 62.0001H79.6142C80.4768 62.0001 81.1763 61.3061 81.1763 60.4501C81.1763 58.0608 80.6121 55.6777 79.5479 53.5658C79.0521 52.566 78.4301 51.6104 77.7111 50.7406C76.0256 48.6468 73.8087 47.0594 71.3065 46.0782C73.5059 44.3746 74.9279 41.7273 74.9279 38.7504C74.9279 37.3201 74.5855 35.8828 73.9404 34.6014C73.6531 34.0215 73.2856 33.4638 72.8274 32.9088C71.7514 31.572 70.3022 30.5576 68.6488 29.9791C66.6774 29.2705 64.4347 29.2705 62.4263 29.9922C60.7687 30.5714 59.3573 31.5741 58.2442 32.9572C57.8104 33.4817 57.4527 34.0319 57.1556 34.6304C56.5189 35.8946 56.1828 37.3201 56.1828 38.7504C56.1828 41.7272 57.6054 44.3753 59.8049 46.0782C57.2978 47.0635 55.085 48.6482 53.4135 50.7246C52.6812 51.6103 52.0585 52.566 51.5675 53.5568C51.541 53.6101 51.5229 53.6668 51.4971 53.7208C51.4727 53.6703 51.4552 53.6163 51.4301 53.5665C50.9343 52.5666 50.3122 51.611 49.5933 50.7412C47.9077 48.6474 45.6909 47.06 43.1887 46.0788C45.3881 44.3746 46.8101 41.7272 46.8101 38.7503C46.8101 37.32 46.4676 35.8827 45.8226 34.6013C45.5353 34.0214 45.1678 33.4637 44.7096 32.9088C43.6336 31.5719 42.1843 30.5576 40.531 29.979C38.5596 29.2704 36.3169 29.2704 34.3085 29.9922C32.6509 30.5713 31.2395 31.574 30.1264 32.9572C29.6926 33.4817 29.3348 34.0318 29.0378 34.6303C28.4011 35.8945 28.0649 37.32 28.0649 38.7503C28.0649 41.7272 29.4876 44.3752 31.687 46.0781C29.1793 47.0635 26.9672 48.6481 25.2956 50.7245L25.2957 50.7247ZM54.3668 54.9346C54.7566 54.1479 55.2483 53.3929 55.841 52.6753C57.2832 50.8839 59.2016 49.5332 61.3998 48.7644C64.04 47.8171 67.0582 47.8123 69.7228 48.7686C71.9105 49.5332 73.8275 50.8838 75.2823 52.6914C75.8618 53.393 76.3542 54.1473 76.7482 54.9437C77.3695 56.1768 77.7768 57.522 77.9532 58.9004H53.1578C53.3342 57.5213 53.7428 56.174 54.3677 54.9347L54.3668 54.9346ZM33.2811 48.7637C35.9213 47.8164 38.9395 47.8116 41.6042 48.7679C43.7918 49.5325 45.7088 50.8831 47.1636 52.6907C47.7431 53.3923 48.2355 54.1466 48.6295 54.943C49.2508 56.1761 49.6581 57.5213 49.8345 58.8997L25.0391 58.9004C25.2155 57.5213 25.6242 56.174 26.249 54.9347C26.6388 54.1479 27.1305 53.393 27.7232 52.6754C29.1654 50.884 31.0838 49.5333 33.282 48.7638L33.2811 48.7637Z" fill="white"/>
<path d="M24.9404 19.9635H35.5209L42.6751 25.9816C42.9611 26.2217 43.3195 26.3497 43.6856 26.3497C43.8153 26.3497 43.9464 26.3338 44.0748 26.3005C44.5657 26.1753 44.9646 25.8217 45.1459 25.3512L47.2143 19.9636H53.0582C55.6427 19.9636 57.7445 17.8781 57.7445 15.3136H59.7027L60.8806 24.9859C60.9559 25.608 61.4029 26.1242 62.0117 26.293C62.1498 26.3318 62.2914 26.3498 62.4308 26.3498C62.9036 26.3498 63.3604 26.1366 63.661 25.7547L71.8926 15.3137H78.0518C80.6363 15.3137 82.7381 13.2282 82.7381 10.6638V4.64997C82.7381 2.08549 80.6363 0 78.0518 0H53.0582C50.4736 0 48.3719 2.08549 48.3719 4.64997V6.19997H24.9403C22.3558 6.19997 20.254 8.28546 20.254 10.8499V15.3137C20.254 17.8782 22.3558 19.9637 24.9403 19.9637L24.9404 19.9635ZM51.4961 4.64977C51.4961 3.7952 52.197 3.09978 53.0582 3.09978H78.0518C78.9131 3.09978 79.6139 3.7952 79.6139 4.64977V10.6636C79.6139 11.5181 78.9131 12.2135 78.0518 12.2135H71.1311C70.6506 12.2135 70.1966 12.4329 69.9009 12.8086L63.5285 20.8914L62.6386 13.5774C62.5438 12.7997 61.8785 12.2136 61.0877 12.2136H57.7444V10.8497C57.7444 8.28525 55.6426 6.19976 53.0581 6.19976H51.496L51.4961 4.64977Z" fill="white"/>
</g>
<defs>
<filter id="filter0_d_1373_9452" x="0.632874" y="0" width="101.727" height="101" filterUnits="userSpaceOnUse" color-interpolation-filters="sRGB">
<feFlood flood-opacity="0" result="BackgroundImageFix"/>
<feColorMatrix in="SourceAlpha" type="matrix" values="0 0 0 0 0 0 0 0 0 0 0 0 0 0 0 0 0 0 127 0" result="hardAlpha"/>
<feOffset dy="4"/>
<feGaussianBlur stdDeviation="2"/>
<feComposite in2="hardAlpha" operator="out"/>
<feColorMatrix type="matrix" values="0 0 0 0 0 0 0 0 0 0 0 0 0 0 0 0 0 0 0.25 0"/>
<feBlend mode="normal" in2="BackgroundImageFix" result="effect1_dropShadow_1373_9452"/>
<feBlend mode="normal" in="SourceGraphic" in2="effect1_dropShadow_1373_9452" result="shape"/>
</filter>
</defs>
</svg>
