<svg width="27" height="24" viewBox="0 0 27 24" fill="none" xmlns="http://www.w3.org/2000/svg">
<path d="M21.6 16H18.9V18.6667H21.6V16ZM21.6 10.6667H18.9V13.3333H21.6V10.6667ZM24.3 21.3333H13.5V18.6667H16.2V16H13.5V13.3333H16.2V10.6667H13.5V8H24.3V21.3333ZM10.8 5.33333H8.1V2.66667H10.8V5.33333ZM10.8 10.6667H8.1V8H10.8V10.6667ZM10.8 16H8.1V13.3333H10.8V16ZM10.8 21.3333H8.1V18.6667H10.8V21.3333ZM5.4 5.33333H2.7V2.66667H5.4V5.33333ZM5.4 10.6667H2.7V8H5.4V10.6667ZM5.4 16H2.7V13.3333H5.4V16ZM5.4 21.3333H2.7V18.6667H5.4V21.3333ZM13.5 5.33333V0H0V24H27V5.33333H13.5Z" fill="#00A984"/>
</svg>
