<svg width="27" height="25" viewBox="0 0 27 25" fill="none" xmlns="http://www.w3.org/2000/svg">
<path d="M10.8 0H16.2C16.9161 0 17.6028 0.277255 18.1092 0.770772C18.6155 1.26429 18.9 1.93364 18.9 2.63158V5.26316H24.3C25.0161 5.26316 25.7028 5.54041 26.2092 6.03393C26.7155 6.52745 27 7.1968 27 7.89474V22.3684C27 23.0664 26.7155 23.7357 26.2092 24.2292C25.7028 24.7227 25.0161 25 24.3 25H2.7C1.98392 25 1.29716 24.7227 0.790812 24.2292C0.284463 23.7357 0 23.0664 0 22.3684V7.89474C0 6.43421 1.2015 5.26316 2.7 5.26316H8.1V2.63158C8.1 1.17105 9.3015 0 10.8 0ZM16.2 5.26316V2.63158H10.8V5.26316H16.2Z" fill="#00A984"/>
</svg>
