<svg width="27" height="26" viewBox="0 0 27 26" fill="none" xmlns="http://www.w3.org/2000/svg">
<path d="M26.6075 23.7761L24.6906 25.622C24.4377 25.8641 24.0956 26 23.7389 26C23.3823 26 23.0402 25.8641 22.7873 25.622L6.75053 10.2046C6.31156 10.3271 5.8576 10.3926 5.40064 10.3996C4.54117 10.399 3.69426 10.2008 2.93032 9.82158C2.16639 9.44233 1.5075 8.89294 1.00844 8.21909C0.509385 7.54524 0.184573 6.7664 0.061014 5.94733C-0.0625453 5.12825 0.0187176 4.2926 0.298047 3.50986L3.72677 6.81173L4.44222 6.12276L6.35907 4.27683L7.07451 3.58786L3.64578 0.285989C4.4586 0.0169946 5.32635 -0.0612617 6.1769 0.057726C7.02744 0.176714 7.8362 0.489508 8.53594 0.970102C9.23568 1.4507 9.80618 2.08521 10.2 2.82088C10.5938 3.55655 10.7996 4.37212 10.8002 5.19979C10.793 5.63985 10.7249 6.07701 10.5977 6.49974L26.6075 21.9431C26.8589 22.1867 27 22.5162 27 22.8596C27 23.203 26.8589 23.5325 26.6075 23.7761ZM0.392539 21.9431C0.14112 22.1867 0 22.5162 0 22.8596C0 23.203 0.14112 23.5325 0.392539 23.7761L2.30939 25.622C2.56231 25.8641 2.90444 26 3.26106 26C3.61768 26 3.95982 25.8641 4.21274 25.622L11.5966 18.5243L7.77645 14.8454L0.392539 21.9431ZM24.2991 0L18.8996 2.5999V5.19979L15.9703 8.02068L18.6701 10.6206L21.5994 7.79969H24.2991L26.9989 2.5999L24.2991 0Z" fill="#00A984"/>
</svg>
