<svg width="27" height="27" viewBox="0 0 27 27" fill="none" xmlns="http://www.w3.org/2000/svg">
<path d="M21.465 20.7765C21.114 19.6965 20.1015 18.9 18.9 18.9H17.55V14.85C17.55 14.492 17.4078 14.1486 17.1546 13.8954C16.9014 13.6422 16.558 13.5 16.2 13.5H8.1V10.8H10.8C11.158 10.8 11.5014 10.6578 11.7546 10.4046C12.0078 10.1514 12.15 9.80804 12.15 9.45V6.75H14.85C15.5661 6.75 16.2528 6.46554 16.7592 5.95919C17.2655 5.45284 17.55 4.76608 17.55 4.05V3.4965C19.1652 4.14769 20.5986 5.18059 21.7275 6.50678C22.8563 7.83296 23.647 9.41294 24.0318 11.1115C24.4166 12.81 24.3841 14.5765 23.9371 16.2597C23.4901 17.9429 22.6419 19.4927 21.465 20.7765ZM12.15 24.2055C6.8175 23.544 2.7 19.008 2.7 13.5C2.7 12.663 2.808 11.853 2.9835 11.0835L9.45 17.55V18.9C9.45 19.6161 9.73446 20.3028 10.2408 20.8092C10.7472 21.3155 11.4339 21.6 12.15 21.6V24.2055ZM13.5 0C11.7272 0 9.97167 0.349188 8.33377 1.02763C6.69588 1.70606 5.20765 2.70047 3.95406 3.95406C1.42232 6.4858 0 9.91958 0 13.5C0 17.0804 1.42232 20.5142 3.95406 23.0459C5.20765 24.2995 6.69588 25.2939 8.33377 25.9724C9.97167 26.6508 11.7272 27 13.5 27C17.0804 27 20.5142 25.5777 23.0459 23.0459C25.5777 20.5142 27 17.0804 27 13.5C27 11.7272 26.6508 9.97167 25.9724 8.33377C25.2939 6.69588 24.2995 5.20765 23.0459 3.95406C21.7924 2.70047 20.3041 1.70606 18.6662 1.02763C17.0283 0.349188 15.2728 0 13.5 0Z" fill="#00A984"/>
</svg>
