<svg width="60" height="60" viewBox="0 0 60 60" fill="none" xmlns="http://www.w3.org/2000/svg">
<g clip-path="url(#clip0_1270_9393)">
<path d="M0 57.2635C0 61.5366 3.46383 65 7.73648 65H52.2633C56.5366 65 60 61.5362 60 57.2635V12.7367C60 8.46336 56.5362 5 52.2635 5H7.73672C3.46336 5 0 8.46383 0 12.7365V57.2633V57.2635Z" fill="#563D7C"/>
<path d="M24.8808 31.5402V23.0434H32.3599C33.0724 23.0434 33.7592 23.1027 34.4206 23.2215C35.082 23.3401 35.6672 23.552 36.176 23.8573C36.6846 24.1627 37.0917 24.5867 37.3971 25.1293C37.7023 25.6721 37.8551 26.3675 37.8551 27.2152C37.8551 28.7417 37.3971 29.8442 36.4812 30.5225C35.5655 31.201 34.3952 31.5402 32.9705 31.5402H24.8808V31.5402ZM16.8926 16.8359V53.1641H34.497C36.1252 53.1641 37.711 52.9606 39.2543 52.5535C40.7977 52.1464 42.1713 51.519 43.3756 50.671C44.5796 49.823 45.5379 48.729 46.2502 47.3893C46.9627 46.0494 47.3187 44.4636 47.3187 42.632C47.3187 40.3592 46.7674 38.4174 45.6652 36.8063C44.5627 35.195 42.892 34.0672 40.6533 33.4227C42.2815 32.6427 43.5113 31.6419 44.3424 30.4208C45.1732 29.1997 45.5888 27.6734 45.5888 25.8416C45.5888 24.1456 45.3089 22.7211 44.7492 21.5677C44.1895 20.4146 43.4009 19.4902 42.3832 18.7948C41.3658 18.0995 40.1447 17.5991 38.7199 17.2939C37.2954 16.9885 35.7181 16.8359 33.9881 16.8359H16.8926V16.8359ZM24.8808 46.9566V36.9842H33.581C35.311 36.9842 36.7017 37.3827 37.7534 38.18C38.8048 38.9771 39.3307 40.3084 39.3307 42.174C39.3307 43.1239 39.1695 43.9039 38.8472 44.5145C38.5249 45.125 38.0925 45.6085 37.5497 45.9645C37.0071 46.3208 36.3795 46.5751 35.6672 46.7279C34.9547 46.8802 34.2087 46.9566 33.4285 46.9566H24.8808V46.9566Z" fill="white"/>
</g>
<defs>
<clipPath id="clip0_1270_9393">
<rect width="60" height="60" fill="white"/>
</clipPath>
</defs>
</svg>
