<svg width="89" height="60" viewBox="0 0 89 60" fill="none" xmlns="http://www.w3.org/2000/svg">
<path d="M21.1845 54.6602H17.7848C17.6652 48.9064 17.3338 43.496 16.7921 38.4279H16.7622L11.5858 54.6602H8.99725L3.85226 38.4279H3.82195C3.44019 43.2952 3.20001 48.7056 3.09985 54.6602H0C0.200319 47.4184 0.70164 40.6299 1.50396 34.2931H5.71779L10.6227 49.2582H10.6528L15.5878 34.2931H19.6198C20.5026 41.7146 21.024 48.5052 21.1841 54.6602" fill="#00758F"/>
<path d="M35.9323 39.6335C34.5478 47.1655 32.7217 52.639 30.455 56.0535C28.6889 58.6845 26.7541 60 24.6473 60C24.0857 60 23.3931 59.8304 22.5713 59.4933V57.6777C22.9728 57.7366 23.4439 57.7681 23.9857 57.7681C24.9686 57.7681 25.7607 57.4957 26.3633 56.9521C27.085 56.2897 27.4461 55.5452 27.4461 54.7201C27.4461 54.1566 27.1644 53.0002 26.6036 51.2509L22.8724 39.6335H26.2123L28.8902 48.3223C29.4918 50.295 29.7428 51.6721 29.6424 52.4571C31.107 48.5346 32.1302 44.26 32.7123 39.6335H35.9322" fill="#00758F"/>
<path d="M50.8252 49.0146C50.8252 50.7419 50.1923 52.1599 48.9306 53.2694C47.6679 54.374 45.9714 54.9277 43.8471 54.9277C41.8602 54.9277 39.9346 54.2904 38.0693 53.026L38.9419 51.2765C40.5471 52.081 41.9997 52.4828 43.3038 52.4828C44.5273 52.4828 45.4848 52.2098 46.1775 51.6705C46.8687 51.1272 47.2829 50.3695 47.2829 49.4085C47.2829 48.1992 46.4418 47.1655 44.8985 46.2983C43.4737 45.5144 40.6263 43.8776 40.6263 43.8776C39.0835 42.7492 38.31 41.5385 38.31 39.5436C38.31 37.8937 38.8869 36.5601 40.039 35.5455C41.1937 34.5288 42.6835 34.0205 44.5078 34.0205C46.3936 34.0205 48.1083 34.5251 49.6527 35.5307L48.8682 37.2786C47.5467 36.7168 46.2436 36.4348 44.9588 36.4348C43.9163 36.4348 43.113 36.6858 42.5529 37.1906C41.9897 37.6912 41.6415 38.3352 41.6415 39.1203C41.6415 40.3265 42.501 41.3727 44.0878 42.2567C45.5304 43.0411 48.4476 44.7095 48.4476 44.7095C50.0344 45.8358 50.8252 47.0367 50.8252 49.0146" fill="#F29111"/>
<path fill-rule="evenodd" clip-rule="evenodd" d="M56.9023 50.5858C56.0795 49.2582 55.6674 47.1277 55.6674 44.19C55.6674 39.0615 57.2227 36.4956 60.3319 36.4956C61.9575 36.4956 63.1505 37.1093 63.9135 38.3354C64.7352 39.6637 65.1474 41.7757 65.1474 44.6723C65.1474 49.8419 63.592 52.4277 60.4829 52.4277C58.8578 52.4277 57.6643 51.8147 56.9023 50.586V50.5858ZM68.9991 55.1514L65.2654 53.3053C65.5978 53.032 65.9135 52.7371 66.1993 52.3957C67.7846 50.527 68.578 47.7613 68.578 44.0997C68.578 37.3617 65.9397 33.9908 60.6638 33.9908C58.0759 33.9908 56.0591 34.8452 54.6149 36.5565C53.0291 38.4274 52.2373 41.1827 52.2373 44.8236C52.2373 48.4036 52.9389 51.03 54.3433 52.6984C55.6228 54.2063 57.5578 54.9614 60.1483 54.9614C61.1148 54.9614 62.0015 54.8421 62.8075 54.6034L67.6697 57.4404L68.9954 55.1512" fill="#F29111"/>
<path d="M81.1871 54.6602H71.5283V34.2931H74.7785V52.1548H81.1871V54.6601" fill="#F29111"/>
<path d="M83.5055 54.6582H84.044V52.586H84.7488V52.1627H82.7734V52.586H83.5055V54.6582ZM87.6036 54.6582H88.1113V52.1627H87.3477L86.7263 53.8637L86.0499 52.1627H85.3141V54.6582H85.7945V52.759H85.8217L86.5302 54.6582H86.8962L87.6036 52.759V54.6582" fill="#F29111"/>
<path fill-rule="evenodd" clip-rule="evenodd" d="M85.2673 27.4709C83.3029 27.4216 81.7816 27.6182 80.5058 28.16C80.1376 28.3075 79.5493 28.3075 79.4989 28.7751C79.6966 28.9717 79.7202 29.2913 79.8933 29.5632C80.1869 30.0553 80.7014 30.7187 81.1686 31.0642C81.6841 31.4581 82.1996 31.8504 82.7402 32.1948C83.6967 32.788 84.777 33.131 85.7083 33.7219C86.25 34.0659 86.788 34.5085 87.3297 34.8786C87.5987 35.0754 87.7691 35.3958 88.1142 35.5176V35.4431C87.9411 35.2222 87.8929 34.9022 87.722 34.6548C87.4771 34.4106 87.2311 34.1877 86.9852 33.9427C86.2731 32.9831 85.3884 32.1472 84.4335 31.4581C83.6474 30.9153 81.9284 30.1769 81.6107 29.2691C81.6107 29.2691 81.585 29.243 81.5608 29.2188C82.101 29.1688 82.7402 28.9717 83.2552 28.8224C84.0884 28.6016 84.8493 28.6515 85.7083 28.4307C86.1016 28.3315 86.4943 28.2076 86.8887 28.0867V27.8636C86.4445 27.4216 86.1267 26.8301 85.6606 26.4122C84.4099 25.3298 83.0339 24.2724 81.6107 23.3851C80.8487 22.8928 79.867 22.5745 79.0569 22.1551C78.7637 22.0072 78.2734 21.9343 78.1009 21.6868C77.6588 21.1456 77.4124 20.4329 77.094 19.7921C76.383 18.4401 75.6944 16.9395 75.0819 15.5099C74.6404 14.5508 74.3703 13.5918 73.8302 12.7053C71.3011 8.52102 68.5532 5.98775 64.3319 3.50181C63.4236 2.98443 62.3439 2.76307 61.1913 2.49229C60.5767 2.46652 59.9636 2.41868 59.3501 2.39449C58.9568 2.2215 58.5635 1.75355 58.2206 1.53219C56.821 0.646755 53.2147 -1.27239 52.1832 1.26193C51.5204 2.86244 53.1649 4.43667 53.7296 5.24902C54.1465 5.81425 54.6872 6.45519 54.9803 7.09402C55.1523 7.51256 55.2016 7.95632 55.3742 8.39851C55.7664 9.48112 56.134 10.6873 56.6505 11.6968C56.9195 12.2137 57.2137 12.7558 57.5572 13.2211C57.7554 13.4934 58.0979 13.6149 58.1718 14.0592C57.8294 14.5508 57.8026 15.289 57.6065 15.9047C56.7234 18.6856 57.0664 22.1306 58.3186 24.1728C58.7103 24.7879 59.6443 26.1419 60.896 25.6238C62.0004 25.1817 61.755 23.7789 62.0738 22.5492C62.1472 22.2518 62.0979 22.0567 62.2448 21.8601V21.9099C62.5882 22.5979 62.9328 23.2607 63.2516 23.952C64.0136 25.1566 65.3376 26.412 66.4431 27.2479C67.0304 27.6925 67.4971 28.4541 68.2334 28.7257V28.6513H68.1851C68.0372 28.4305 67.817 28.3313 67.6203 28.1598C67.1788 27.7166 66.689 27.1749 66.344 26.6831C65.3135 25.3055 64.4042 23.7789 63.5961 22.2042C63.2023 21.4395 62.8594 20.6036 62.54 19.8412C62.3932 19.5473 62.3932 19.103 62.1472 18.9558C61.7781 19.4965 61.2395 19.9648 60.97 20.6272C60.5032 21.6866 60.4545 22.9906 60.2814 24.3447C60.1839 24.3704 60.2332 24.3447 60.1839 24.3936C59.3994 24.1969 59.1293 23.3849 58.8341 22.6981C58.0978 20.9486 57.9741 18.1433 58.6133 16.1252C58.7843 15.6094 59.5226 13.9852 59.2269 13.4931C59.0785 13.0236 58.5882 12.7554 58.3186 12.3847C58.0003 11.9173 57.6547 11.3279 57.4361 10.81C56.8466 9.43239 56.5504 7.90601 55.9143 6.52843C55.6196 5.88749 55.103 5.22289 54.6872 4.63348C54.22 3.96888 53.705 3.50145 53.3363 2.71486C53.2147 2.44355 53.0427 2.00031 53.2383 1.70586C53.2865 1.50869 53.3862 1.43455 53.5828 1.38513C53.9001 1.11435 54.8094 1.45821 55.1277 1.60596C56.0365 1.97402 56.7974 2.32051 57.5572 2.83631C57.9012 3.0829 58.2693 3.55034 58.7103 3.67443H59.2269C60.0119 3.84531 60.896 3.72228 61.6328 3.94469C62.9328 4.36269 64.1106 4.97786 65.1667 5.64247C68.3807 7.68517 71.0315 10.5897 72.8223 14.0588C73.1176 14.6241 73.2413 15.1414 73.5108 15.7308C74.0263 16.9391 74.665 18.1695 75.1795 19.3495C75.6944 20.5063 76.1863 21.6864 76.9236 22.6477C77.2907 23.1636 78.7637 23.4343 79.4265 23.7052C79.9163 23.926 80.6783 24.1231 81.1203 24.3934C81.9546 24.9093 82.7874 25.5009 83.574 26.0678C83.9657 26.3631 85.1933 26.9776 85.2673 27.4705" fill="#00758F"/>
<path fill-rule="evenodd" clip-rule="evenodd" d="M60.2329 6.08289C59.8165 6.08289 59.5228 6.13337 59.2266 6.20646V6.25587H59.2743C59.4725 6.64864 59.8165 6.92153 60.0598 7.2654C60.2575 7.65923 60.4295 8.05146 60.6256 8.4458C60.6498 8.42162 60.6734 8.39585 60.6734 8.39585C61.0195 8.15083 61.1909 7.75753 61.1909 7.16602C61.0425 6.9925 61.0195 6.82162 60.8957 6.64863C60.7489 6.40309 60.4295 6.28005 60.2329 6.08288" fill="#00758F"/>
</svg>
