<?xml version="1.0" encoding="UTF-8"?>
<!-- Generator: Adobe Illustrator 23.0.4, SVG Export Plug-In . SVG Version: 6.00 Build 0)  -->
<svg version="1.1" id="Capa_1" xmlns="http://www.w3.org/2000/svg" xmlns:xlink="http://www.w3.org/1999/xlink" x="0px" y="0px" viewBox="0 0 47.4 63" style="enable-background:new 0 0 47.4 63;" xml:space="preserve">
<style type="text/css">
	.st0{fill:#666666;}
	.st1{fill:#D9D9D9;}
	.st2{fill-rule:evenodd;clip-rule:evenodd;fill:#D9D9D9;}
	.st3{fill-rule:evenodd;clip-rule:evenodd;fill:#666666;}
</style>
<g>
	<path class="st0" d="M47.4,0H0v37.6h0.1C0,38.2,0,38.8,0,39.4C0,52.4,10.6,63,23.7,63c13.1,0,23.7-10.6,23.7-23.7   c0-0.6,0-1.2-0.1-1.8h0.1V0z"/>
	<path class="st1" d="M45.4,42.6v-5.4h-1.2V14.9H3.2v22.3H2v5.4h1.8c0.4,2,1.2,3.8,2.1,5.5L4.7,49l2.8,3.8l1.2-0.9   C9.7,53,11,54.1,12.3,55l-0.7,1.4l4.2,2.1l0.7-1.4c1.6,0.6,3.2,1,4.9,1.2V60H26v-1.6c1.7-0.2,3.3-0.6,4.8-1.1l0.7,1.4l4.2-2.1   L35,55.1c1.4-0.9,2.7-2,3.8-3.3l1.3,1L43,49l-1.4-1c0.9-1.7,1.6-3.5,2.1-5.4H45.4z"/>
	<rect x="1.7" y="2.6" class="st1" width="43.9" height="11.6"/>
	<path class="st0" d="M39.8,35.2c0-6.6-3.9-12.2-9.6-14.8v-5.5H17.1v5.5c-5.7,2.5-9.6,8.2-9.6,14.8c0,6.6,3.9,12.2,9.6,14.8v7.5   c1.3,0.5,2.8,0.8,4.2,1V60H26v-1.6c1.4-0.2,2.8-0.5,4.2-0.9v-7.5C35.9,47.4,39.8,41.7,39.8,35.2z"/>
	<g>
		<g>
			<path class="st1" d="M24.6,27.2c0,0,0.1,0.2,0.1,0.2c0,0-0.1,0.1-0.2,0.1c0,0-0.1-0.1-0.1-0.2C24.4,27.2,24.5,27.2,24.6,27.2"/>
			<path class="st1" d="M27,30.9c0,0,0.1,0.1,0.1,0.2c0,0-0.1,0.1-0.2,0.1c0,0-0.1-0.1-0.1-0.2C26.9,31,27,30.9,27,30.9"/>
			<path class="st1" d="M20.4,30.9c0,0,0,0.2,0,0.2c0,0-0.1,0-0.2,0c0,0,0-0.1,0-0.2C20.3,30.9,20.4,30.9,20.4,30.9"/>
			<path class="st1" d="M26.7,29.9c0,0.2,0.2,0.2,0.2,0.2c0.2,0,0.2-0.3,0.3-0.4c0,0,0.1,0,0.1,0c0,0,0,0,0,0.1c0,0.1,0,0.1-0.1,0.2     c0,0,0.1,0,0.1,0c0-0.1,0-0.1,0-0.2c0-0.1-0.1-0.2-0.2-0.2c-0.2,0-0.1,0.3-0.3,0.4c0,0-0.1,0-0.1,0C26.7,30,26.7,30,26.7,29.9     c0,0,0.1-0.1,0.2-0.2l0,0c0,0-0.1,0-0.1,0C26.7,29.8,26.6,29.8,26.7,29.9"/>
			<path class="st1" d="M26.5,29.3C26.5,29.3,26.5,29.3,26.5,29.3l0.3-0.1c0,0,0,0,0,0l0.1,0.1c0,0,0,0.1,0.1,0.1c0,0,0-0.1,0-0.1     l-0.1-0.1c0,0,0,0,0,0l0.2-0.1c0,0,0,0,0.1,0c0,0,0,0,0,0c0.1,0.2,0,0.2,0,0.3v0c0.1,0,0.1,0,0.2,0l-0.2-0.4c0,0,0,0,0,0.1     l-0.5,0.2c0,0-0.1,0-0.1,0l0.2,0.4c0,0,0.1,0,0.2,0v0C26.7,29.5,26.6,29.5,26.5,29.3L26.5,29.3z"/>
			<path class="st1" d="M26.3,29C26.3,28.9,26.3,28.9,26.3,29l0.5-0.4c0,0,0,0,0,0l0,0.1c0.1,0.1,0,0.1,0,0.2c0,0,0,0,0,0     c0,0,0.1-0.1,0.1-0.1c0,0,0,0-0.1-0.1l-0.2-0.3c0-0.1,0-0.1,0-0.1c0,0-0.1,0-0.1,0.1c0,0,0,0,0,0h0c0.1,0,0.1,0,0.2,0.1l0,0.1     c0,0,0,0,0,0l-0.5,0.3c0,0,0,0-0.1,0L26.3,29z"/>
			<path class="st1" d="M26.4,28l-0.1-0.1c0,0,0,0,0,0.1l-0.4,0.4c0,0,0,0-0.1,0l0.1,0.1c0,0,0,0,0-0.1l0.2-0.2c0,0,0,0,0,0l0,0     c0,0,0,0.1,0,0.1L26,28.5c0,0,0,0,0,0.1l0.1,0.1c0,0,0-0.1,0-0.1l0.1-0.3c0.1,0,0.2,0.1,0.2,0C26.5,28.2,26.5,28.1,26.4,28      M26.3,28.2c-0.1,0.1-0.2,0.1-0.2,0c0,0,0,0,0,0l0.2-0.2c0,0,0.1,0,0.1,0c0,0,0,0,0,0C26.4,28,26.4,28.1,26.3,28.2"/>
			<path class="st1" d="M25.8,27.5L25.8,27.5C25.8,27.4,25.8,27.5,25.8,27.5c-0.1,0-0.1,0-0.1,0l-0.3,0.2l-0.2,0.1c0,0-0.1,0-0.1,0     l0.1,0.1c0,0,0,0,0,0c0,0,0,0,0,0l0.1-0.1c0,0,0,0,0.1,0.1c0.1,0,0.1,0.1,0.1,0.1l0,0.2c0,0,0,0,0,0.1l0.1,0.1c0,0,0-0.1,0-0.1     L25.8,27.5z M25.6,27.9C25.6,27.9,25.6,27.8,25.6,27.9c-0.1-0.1-0.2-0.1-0.2-0.1l0,0l0.3-0.2L25.6,27.9z"/>
			<path class="st1" d="M23.4,27.5c0.2,0,0.2-0.1,0.2-0.2c0-0.2-0.3-0.2-0.3-0.3c0,0,0-0.1,0-0.1c0,0,0,0,0.1,0c0.1,0,0.1,0,0.2,0.1     c0,0,0-0.1,0-0.1c0,0-0.1,0-0.2,0c-0.1,0-0.2,0.1-0.2,0.2c0,0.2,0.3,0.2,0.3,0.4c0,0,0,0.1,0,0.1C23.6,27.5,23.5,27.5,23.4,27.5     c0,0-0.1-0.1-0.2-0.2h0c0,0,0,0.1,0,0.1C23.3,27.5,23.4,27.5,23.4,27.5"/>
			<path class="st1" d="M23.2,27.5C23.1,27.5,23.1,27.5,23.2,27.5l-0.5-0.6l-0.1,0c0,0,0,0,0,0c0,0,0,0,0,0l0,0.4l0,0.2     c0,0,0,0.1,0,0.1l0.1,0c0,0,0,0,0,0c0,0,0,0,0,0l0-0.2c0,0,0.1,0,0.1,0c0.1,0,0.1,0,0.1,0l0.1,0.1c0,0,0,0.1,0,0.1L23.2,27.5z      M22.8,27.4c0,0-0.1,0-0.1,0v0l0-0.3l0.2,0.3C22.9,27.3,22.8,27.4,22.8,27.4"/>
			<path class="st1" d="M22.3,27.8l0.1-0.1c0,0,0,0-0.1,0l-0.2-0.5c0,0,0,0,0-0.1L22,27.2c0,0,0,0,0.1,0L22.3,27.8     C22.4,27.8,22.4,27.8,22.3,27.8"/>
			<path class="st1" d="M22.2,27.9c0,0,0-0.1-0.1-0.2h0c0,0.1,0,0.2-0.1,0.2c-0.1,0.1-0.3,0-0.4-0.1c-0.1-0.1-0.1-0.2-0.1-0.3     c0,0,0-0.1,0.1-0.1c0,0,0.1-0.1,0.2,0c0,0,0-0.1,0-0.1c0,0-0.1,0-0.2,0.1c-0.2,0.1-0.2,0.3-0.1,0.5c0.1,0.2,0.3,0.2,0.4,0.1     C22.1,28,22.2,27.9,22.2,27.9"/>
			<path class="st1" d="M21.4,28.1l0.1,0.1l0,0l-0.7-0.1l0,0l0.4,0.4c0,0,0,0,0,0.1l0.1-0.1c0,0-0.1,0-0.1,0l-0.2-0.2L21,28.2l0,0     l0.7,0.1l-0.4-0.5c0,0,0,0,0-0.1l-0.1,0.1c0,0,0.1,0,0.1,0L21.4,28.1z"/>
			<path class="st1" d="M21,29C21,29,21,29,21,29l-0.3-0.1c0,0,0,0,0,0l0.1-0.1c0,0,0-0.1,0-0.1c0,0,0,0.1,0,0.1l-0.1,0.1     c0,0,0,0,0,0l-0.2-0.1c0,0,0,0,0,0c0,0,0,0,0,0c0.1-0.1,0.1-0.1,0.2-0.1l0,0c0,0-0.1-0.1-0.1-0.1l-0.2,0.4c0,0,0,0,0.1,0L21,29     C21,29.1,21,29.1,21,29.1l0.2-0.4c0,0-0.1-0.1-0.1-0.1l0,0C21.1,28.7,21.1,28.8,21,29L21,29z"/>
			<path class="st1" d="M20.8,29.4l0.1-0.1c0,0,0,0-0.1,0l-0.5-0.2c0,0,0,0,0,0l-0.1,0.1c0,0,0,0,0.1,0L20.8,29.4     C20.8,29.4,20.8,29.4,20.8,29.4"/>
			<path class="st1" d="M20.8,29.6c0,0-0.1,0-0.2-0.1v0c0.1,0.1,0.1,0.1,0.1,0.2c0,0.2-0.2,0.2-0.4,0.2c-0.1,0-0.2-0.1-0.2-0.1     c0,0,0-0.1,0-0.1c0-0.1,0-0.1,0.1-0.2c0,0,0-0.1-0.1-0.1c0,0-0.1,0.1-0.1,0.2c0,0.2,0.1,0.4,0.3,0.4c0.2,0,0.3,0,0.4-0.2     C20.8,29.7,20.8,29.7,20.8,29.6"/>
			<path class="st1" d="M27,32.5c0.1-0.2,0-0.3,0-0.3c-0.2-0.1-0.3,0.1-0.5,0.1c0,0-0.1,0-0.1-0.1c0,0,0,0,0-0.1     c0-0.1,0.1-0.1,0.2-0.1c0,0,0-0.1-0.1-0.1c0,0-0.1,0.1-0.1,0.1c-0.1,0.1,0,0.2,0,0.3c0.2,0.1,0.3-0.2,0.5-0.1c0,0,0.1,0,0.1,0.1     C27,32.4,27,32.4,27,32.5c-0.1,0-0.1,0-0.2,0v0c0,0,0.1,0.1,0.1,0.1C26.9,32.6,27,32.6,27,32.5"/>
			<path class="st1" d="M26.5,33C26.5,33,26.5,33.1,26.5,33l-0.2-0.2c0,0,0,0,0,0l0.1-0.1c0,0,0-0.1,0-0.1c0,0,0,0-0.1,0.1l-0.1,0.1     c0,0,0,0,0,0l-0.2-0.1c0,0,0,0,0,0c0,0,0,0,0,0c0.1-0.1,0.2-0.1,0.2-0.1v0c0,0-0.1-0.1-0.1-0.1l-0.3,0.3c0,0,0,0,0.1,0L26.5,33     c-0.1,0.1-0.1,0.1-0.1,0.1l0.3-0.3c0,0-0.1-0.1-0.1-0.1l0,0C26.7,32.8,26.7,32.9,26.5,33L26.5,33z"/>
			<path class="st1" d="M26,33c-0.1-0.2-0.3-0.2-0.5,0l-0.2,0.1c0,0,0,0,0.1,0l0.4,0.5c0,0,0,0,0,0.1l0.2-0.1     C26.1,33.4,26.2,33.2,26,33 M25.9,33.5c-0.1,0.1-0.1,0.1-0.2,0l-0.3-0.4c0,0,0,0,0,0s0,0,0,0c0.2-0.1,0.3-0.1,0.5,0.1     C26.1,33.3,26.1,33.4,25.9,33.5"/>
			<path class="st1" d="M25.5,33.8L25,33.3L25,33.4c0,0,0,0,0,0c0,0,0,0,0,0l0.1,0.4l0,0.2c0,0,0,0.1,0,0.1l0.1-0.1c0,0,0,0,0,0     c0,0,0,0,0,0l0-0.2c0,0,0,0,0.1-0.1c0.1,0,0.1,0,0.1-0.1L25.5,33.8c0,0.1,0,0.1,0,0.1L25.5,33.8C25.6,33.8,25.6,33.8,25.5,33.8      M25.2,33.7C25.1,33.8,25.1,33.8,25.2,33.7L25.2,33.7L25,33.4l0.3,0.2C25.3,33.7,25.2,33.7,25.2,33.7"/>
			<path class="st1" d="M24.8,33.8c0-0.2-0.2-0.3-0.5-0.2l-0.2,0c0,0,0,0,0,0l0.1,0.6c0,0,0,0.1,0,0.1l0.2,0     C24.7,34.2,24.8,34,24.8,33.8 M24.5,34.2c-0.1,0-0.1,0-0.1-0.1l-0.1-0.5c0,0,0-0.1,0-0.1s0,0,0,0c0.2,0,0.4,0.1,0.4,0.2     C24.7,34.1,24.7,34.2,24.5,34.2"/>
			<path class="st1" d="M23.8,34.4l0.2,0c0,0,0,0,0-0.1l0-0.6c0,0,0,0,0-0.1l-0.1,0c0,0,0,0,0,0.1L23.8,34.4     C23.8,34.3,23.8,34.3,23.8,34.4"/>
			<path class="st1" d="M23.4,34l0,0.2l0,0L23,33.6l0,0.1l-0.1,0.6c0,0,0,0,0,0.1l0.1,0c0,0,0,0,0-0.1l0-0.3l0-0.2l0,0l0.4,0.6     l0.1-0.6c0,0,0,0,0-0.1l-0.1,0c0,0,0,0,0,0.1L23.4,34z"/>
			<path class="st1" d="M22.5,34.2l0.1,0.1c0,0,0,0,0-0.1l0-0.7l-0.1,0c0,0,0,0,0,0c0,0,0,0,0,0l-0.2,0.3L22.1,34c0,0-0.1,0-0.1,0     l0.1,0c0,0,0,0,0,0c0,0,0,0,0,0l0.1-0.1c0,0,0.1,0,0.1,0c0.1,0,0.1,0,0.1,0.1L22.5,34.2C22.5,34.1,22.5,34.2,22.5,34.2      M22.4,33.9C22.3,33.8,22.3,33.8,22.4,33.9L22.4,33.9l0.1-0.3l0,0.4C22.5,33.9,22.4,33.9,22.4,33.9"/>
			<path class="st1" d="M21.3,33.5C21.3,33.5,21.3,33.5,21.3,33.5l0.2-0.3l0.1-0.1l0,0l-0.1,0.5l0.5-0.3l0,0l-0.2,0.4c0,0,0,0-0.1,0     l0.1,0.1c0,0,0,0,0-0.1l0.3-0.6h0l-0.5,0.3l0.1-0.6l-0.2,0.2L21.3,33.5C21.3,33.4,21.2,33.5,21.3,33.5L21.3,33.5z"/>
			<path class="st1" d="M20.8,33.1c0.1,0.1,0.3,0.1,0.4,0c0.2-0.2,0.2-0.2,0.3-0.2c0,0,0,0,0.1,0l-0.1-0.1c0,0,0,0,0,0.1     c-0.1,0.1-0.1,0.1-0.3,0.3C21,33.1,20.9,33.2,20.8,33.1c0-0.1,0-0.2,0.1-0.3l0.3-0.3c0,0,0,0,0.1,0l-0.1-0.1c0,0,0,0,0,0.1     l-0.3,0.3C20.7,32.8,20.7,33,20.8,33.1"/>
			<path class="st1" d="M20.2,32.1l0.1,0.1c0,0,0,0,0-0.1l0.2-0.1c0.1,0.1,0.1,0.2,0.2,0.3l-0.2,0.1c0,0,0,0-0.1,0l0.1,0.1     c0,0,0,0,0-0.1l0.5-0.3c0,0,0,0,0.1,0L21,32.1c0,0,0,0,0,0.1l-0.2,0.1c-0.1-0.1-0.1-0.2-0.2-0.3l0.2-0.1c0,0,0,0,0.1,0l-0.1-0.1     c0,0,0,0,0,0.1L20.2,32.1C20.2,32.1,20.2,32.1,20.2,32.1"/>
			<path class="st2" d="M23.6,27.8c-1.5,0-2.7,1.2-2.7,2.8c0,1.5,1.2,2.7,2.8,2.7c1.5,0,2.7-1.3,2.7-2.8     C26.4,29,25.1,27.8,23.6,27.8 M25.3,31.5l-0.9-0.2l0.2,0.9L24,31.6l-0.3,0.9l-0.3-0.8l-0.7,0.6l0.2-0.9L22,31.5l0.6-0.7l-0.9-0.3     l0.8-0.3L22,29.6l0.9,0.2l-0.2-0.9l0.7,0.6l0.3-0.9l0.3,0.8l0.7-0.6l-0.2,0.9l0.9-0.2l-0.6,0.7l0.9,0.3l-0.8,0.3L25.3,31.5z"/>
			<path class="st2" d="M23.7,21.1c-7.8,0-14.1,6.3-14.1,14.1c0,7.8,6.3,14.1,14.1,14.1c7.8,0,14.1-6.3,14.1-14.1     C37.8,27.4,31.5,21.1,23.7,21.1 M23.7,45.9c-5.9,0-10.7-4.8-10.7-10.7c0-5.9,4.8-10.7,10.7-10.7c5.9,0,10.7,4.8,10.7,10.7     C34.4,41.1,29.6,45.9,23.7,45.9"/>
			<path class="st3" d="M13.3,29.8c-0.1-0.2-0.3-0.4-0.5-0.5l0,0c-0.3-0.1-0.5-0.1-0.7,0c-0.2,0.1-0.4,0.3-0.5,0.6l-0.3,0.6l0.2-0.1     c0,0,0,0,0,0c0,0,0,0,0.1,0l1.4,0.6c0,0,0,0,0.1,0c0,0,0,0,0,0l0,0.2c0.1-0.2,0.2-0.5,0.3-0.7C13.4,30.3,13.4,30.1,13.3,29.8      M13.1,30.5c0,0.1-0.1,0.1-0.1,0.2c0,0-0.1,0-0.2,0l-1.2-0.5c0,0,0,0,0-0.1l0,0c0.1-0.2,0.3-0.4,0.4-0.4c0.2-0.1,0.4,0,0.6,0l0,0     c0.2,0.1,0.3,0.2,0.4,0.4C13.1,30.2,13.1,30.3,13.1,30.5"/>
			<path class="st3" d="M15.1,26.2C14.9,26,14.7,26,14.4,26c-0.2,0-0.5,0.2-0.7,0.4l-0.5,0.5l0.2,0c0,0,0,0,0.1,0c0,0,0,0,0.1,0     l1.1,1c0,0,0,0,0,0.1c0,0,0,0,0,0.1l0,0.1l-0.2,0.1c0,0-0.1,0-0.1,0c0,0-0.1,0-0.1,0c-0.5-0.2-1.2-0.3-1.7-0.4l-0.1,0.3h0.1     c0,0,0,0,0,0c0,0,0,0,0,0c0,0,0,0,0,0c0,0,0,0,0,0l0.6,0.7l0.3,0.4c0,0,0,0.1,0,0.1c0,0,0,0.1,0,0.1l0,0.3l0.4-0.7l-0.2,0.1     c0,0,0,0,0,0c0,0,0,0,0,0c0,0,0,0,0,0l-0.2-0.3c0,0,0.1-0.1,0.1-0.2c0.1-0.1,0.1-0.2,0.2-0.3l0.4,0.1c0,0,0,0,0.1,0c0,0,0,0,0,0     l0,0.1l0.4-0.6l0,0l0.5-0.5c0.2-0.2,0.3-0.5,0.3-0.7C15.4,26.7,15.3,26.4,15.1,26.2 M13.5,28.6c0,0-0.1,0.1-0.1,0.1l0,0l-0.4-0.5     l0.6,0.1C13.5,28.5,13.5,28.5,13.5,28.6 M15,27.5c-0.1,0.1-0.1,0.1-0.2,0.1c0,0-0.1,0-0.1-0.1l-0.9-0.8c0,0,0,0-0.1-0.1     c0,0,0,0,0-0.1c0.2-0.2,0.4-0.3,0.5-0.3c0.2,0,0.4,0.1,0.6,0.2c0.2,0.1,0.2,0.3,0.3,0.5C15.2,27.2,15.2,27.4,15,27.5"/>
			<path class="st3" d="M33,25.8l-0.5-0.5l0,0.2c0,0,0,0,0,0.1s0,0,0,0.1l-1.1,1c0,0,0,0-0.1,0c0,0,0,0-0.1,0l-0.2,0l0.5,0.5     c0.2,0.2,0.5,0.3,0.7,0.3c0.3,0,0.5-0.1,0.7-0.3c0.2-0.2,0.3-0.4,0.3-0.7C33.3,26.2,33.2,26,33,25.8 M32.7,27     c-0.2,0.1-0.3,0.2-0.5,0.2c-0.2,0-0.3-0.1-0.5-0.2c-0.1-0.1-0.1-0.1-0.1-0.2c0,0,0-0.1,0.1-0.1l0.9-0.8c0,0,0.1-0.1,0.1-0.1     c0,0,0,0,0.1,0.1c0.2,0.2,0.3,0.4,0.2,0.6C33,26.6,32.9,26.8,32.7,27"/>
			<path class="st3" d="M20.6,24l-0.2,0c0,0-0.1,0-0.1,0c0,0-0.1-0.1-0.1-0.1L19,22.6l-0.3,0.2l0.1,0c0,0,0,0,0,0c0,0,0,0,0,0     c0,0,0,0,0,0c0,0,0,0,0,0l0.1,0.9l0,0.6c0,0,0,0.1,0,0.1c0,0,0,0-0.1,0.1l-0.2,0.2l0.7-0.3l-0.2,0c0,0,0,0,0,0c0,0,0,0,0,0     c0,0,0,0,0-0.1l0-0.4c0,0,0.1-0.1,0.2-0.1c0.1,0,0.2-0.1,0.3-0.1l0.3,0.3c0,0,0,0,0,0.1c0,0,0,0,0,0l0,0.1L20.6,24z M19.3,23.7     c0,0-0.1,0-0.1,0.1l0,0L19,23.1l0.4,0.5C19.4,23.6,19.4,23.7,19.3,23.7"/>
			<path class="st3" d="M29.8,24.8c-0.1,0.1-0.2,0.1-0.3,0.2c-0.1,0-0.2,0-0.3-0.1l-0.1-0.1c0,0,0,0,0,0c0,0,0,0,0,0l0.7-1.3     c0,0,0,0,0,0c0,0,0,0,0.1,0l0.2,0l-0.7-0.4l0.1,0.2c0,0,0,0,0,0c0,0,0,0,0,0.1l-0.7,1.3c0,0,0,0,0,0.1c0,0,0,0,0,0l-0.1,0     l-0.1-0.2c0,0,0-0.1,0-0.1c0,0,0-0.1,0-0.1c0-0.6,0-1.2,0-1.8l-0.4,0l0,0.1c0,0,0,0,0,0c0,0,0,0,0,0c0,0,0,0,0,0c0,0,0,0,0,0     l-0.6,0.7L27,23.9C27,24,27,24,27,24c0,0-0.1,0-0.1,0l-0.3,0l0.7,0.3l-0.1-0.1c0,0,0,0,0,0c0,0,0,0,0,0c0,0,0,0,0,0l0.2-0.3     c0.1,0,0.1,0,0.2,0.1c0.1,0,0.2,0.1,0.3,0.1l0,0.4c0,0,0,0.1,0,0.1c0,0,0,0,0,0l-0.1,0.1l0.7,0.2l-0.1,0l1.1,0.6l0,0     c0,0,0.1-0.1,0.1-0.2C29.8,25.1,29.9,25,29.8,24.8l0.1,0L29.8,24.8L29.8,24.8z M27.8,23.7c-0.1,0-0.1,0-0.1,0l0,0l0.4-0.5l0,0.7     C28,23.7,27.9,23.7,27.8,23.7"/>
			<path class="st3" d="M24.6,22c-0.1-0.2-0.4-0.3-0.6-0.3c-0.3,0-0.5,0.1-0.6,0.3c-0.2,0.2-0.3,0.5-0.3,0.7c0,0.3,0.1,0.5,0.2,0.7     c0.1,0.2,0.3,0.3,0.6,0.2c0.2,0,0.5-0.1,0.6-0.3c0.2-0.2,0.3-0.5,0.3-0.7C24.8,22.4,24.8,22.2,24.6,22 M24.5,22.8     c0,0.1,0,0.3,0,0.4c0,0.1-0.1,0.2-0.1,0.2c0,0-0.1,0-0.1,0c0,0-0.1,0-0.1,0l0,0c-0.2,0-0.3-0.1-0.4-0.2c-0.1-0.1-0.2-0.3-0.2-0.6     v0c0-0.1,0-0.2,0-0.3c0-0.1,0.1-0.2,0.1-0.3c0,0,0.1,0,0.1,0c0,0,0.1,0,0.1,0c0.2,0,0.3,0.1,0.4,0.2     C24.4,22.3,24.5,22.5,24.5,22.8L24.5,22.8z"/>
			<path class="st3" d="M11.6,34.6c0,0,0.1-0.1,0.1-0.1l0.5-0.3c0,0,0,0,0.1,0l0.1,0l0-0.6l-0.1,0.2c0,0-0.1,0.1-0.1,0.1     c0,0-0.1,0.1-0.1,0.1l-0.6,0.3c0-0.1-0.1-0.1-0.1-0.2C11.2,34,11.1,34,10.9,34c-0.2,0-0.3,0-0.4,0.2c-0.1,0.1-0.1,0.3-0.1,0.5     l0,0.7l0.1-0.2c0,0,0,0,0,0c0,0,0,0,0.1,0l1.5,0.1c0,0,0,0,0.1,0c0,0,0,0,0,0l0.1,0.2l0-0.8l-0.1,0.2c0,0,0,0,0,0c0,0,0,0-0.1,0     l-0.6,0L11.6,34.6C11.5,34.7,11.5,34.6,11.6,34.6 M11.3,34.7l-0.6,0c-0.1,0-0.1,0-0.1,0v0v-0.1c0-0.1,0-0.2,0.1-0.3     c0.1,0,0.2-0.1,0.2-0.1h0c0.1,0,0.2,0,0.2,0.1C11.3,34.5,11.3,34.6,11.3,34.7L11.3,34.7z"/>
			<path class="st3" d="M33.6,40.9C33.7,40.8,33.7,40.8,33.6,40.9c0.1,0,0.2,0,0.2,0c0.4,0,1.3,0.2,1.8,0.2l0.1-0.3l-0.1,0     c0,0,0,0,0,0c0,0,0,0,0,0c0,0,0,0,0,0c0,0,0,0,0,0L34.8,40l-0.4-0.4c0,0-0.1-0.1-0.1-0.1c0,0,0-0.1,0-0.1l0-0.3L34,39.8l0.2-0.1     c0,0,0,0,0,0c0,0,0,0,0,0c0,0,0,0,0,0l0.3,0.3c0,0-0.1,0.1-0.1,0.2c-0.1,0.1-0.1,0.2-0.1,0.3l-0.4,0c0,0,0,0-0.1,0c0,0,0,0,0,0     l0-0.1l-0.3,0.6l-0.4,0.6l0.2-0.1c0,0,0.1,0,0.1,0c0,0,0,0,0.1,0l0.6,0.4l0.3,0.2l-1.8,0.2c0.5,0.3,1,0.7,1.5,1c0,0,0,0,0.1,0.1     c0,0,0,0,0,0.1l0,0.2l0.4-0.6L34.3,43c0,0-0.1,0-0.1,0c0,0,0,0-0.1,0l-0.7-0.4l-0.2-0.1l1.9-0.2L34.8,42l-1.2-0.8     c0,0,0,0-0.1-0.1c0,0,0,0,0-0.1l0-0.1L33.6,40.9z M34.6,40.4c0,0,0-0.1,0.1-0.1l0,0l0.5,0.5l-0.7-0.1     C34.6,40.5,34.6,40.4,34.6,40.4"/>
			<path class="st3" d="M36.9,34.4l-0.1,0.2c0,0,0,0.1,0,0.1c0,0,0,0-0.1,0l-0.8,0.1l-0.2,0l1.3-1.3l-0.3,0.1l-1.5,0.1     c0,0-0.1,0-0.1,0c0,0,0,0-0.1-0.1L35,33.5l0-0.1c0,0,0-0.1,0-0.1c0,0,0.1,0,0.1-0.1c0.1-0.1,1.3-0.8,1.5-1l-0.2-0.3l-0.1,0.1     c0,0,0,0,0,0c0,0,0,0,0,0c0,0,0,0,0,0c0,0,0,0,0,0l-0.9-0.1l-0.6-0.1c0,0-0.1,0-0.1,0c0,0,0,0-0.1-0.1l-0.2-0.2l0.2,0.8l0.1-0.2     c0,0,0,0,0,0c0,0,0,0,0,0c0,0,0,0,0.1,0l0.4,0c0,0.1,0,0.1,0.1,0.2c0,0.1,0,0.2,0.1,0.3L35,32.9c0,0,0,0-0.1,0c0,0,0,0,0,0     l-0.1-0.1l0.1,0.6l0.1,0.7l0.1-0.2c0,0,0,0,0-0.1c0,0,0,0,0.1,0l0.7-0.1l0.3,0l-1.3,1.3c0.6,0,1.2-0.1,1.8-0.1c0,0,0.1,0,0.1,0     c0,0,0,0,0.1,0l0.1,0.2L36.9,34.4z M36.1,32.2l-0.5,0.4c0-0.1,0-0.1-0.1-0.2c0-0.1,0-0.1,0-0.1l0,0L36.1,32.2z"/>
			<path class="st0" d="M23.5,46.9c-0.1-0.2-0.2-0.2-0.4-0.2c0,0,0,0,0,0c-0.1,0-0.3,0.1-0.4,0.2c-0.1,0.1-0.2,0.3-0.2,0.4     c0,0.2,0,0.3,0.1,0.4c0.1,0.1,0.2,0.2,0.4,0.2c0,0,0,0,0,0c0.1,0,0.1,0,0.2,0c0,0,0.1,0,0.1,0c-0.1,0.2-0.1,0.3-0.3,0.4     c-0.1,0.1-0.3,0.2-0.5,0.2l-0.1,0l0.1,0c0,0,0.1,0,0.1,0c0,0,0,0,0.1,0l0,0c0.1,0,0.5-0.1,0.7-0.3c0.2-0.2,0.3-0.4,0.3-0.8     C23.6,47.2,23.6,47,23.5,46.9 M22.9,46.8C22.9,46.8,22.9,46.8,22.9,46.8C22.9,46.8,22.9,46.8,22.9,46.8c0.2,0,0.3,0,0.3,0.1     c0.1,0.1,0.1,0.2,0.1,0.4c0,0.1,0,0.1,0,0.2l0,0c0,0-0.1,0-0.1,0c0,0-0.1,0-0.1,0c-0.1,0-0.2-0.1-0.2-0.1     c-0.1-0.1-0.1-0.2-0.1-0.3C22.8,47,22.8,46.8,22.9,46.8"/>
			<path class="st0" d="M26.3,47.7c0-0.1-0.1-0.2-0.2-0.3c-0.1-0.1-0.1-0.1-0.2-0.1c0.1-0.1,0.1-0.1,0.1-0.2c0-0.1,0.1-0.2,0-0.2     c0-0.1-0.1-0.2-0.2-0.3c-0.1,0-0.1-0.1-0.2-0.1c0,0-0.1,0-0.1,0c-0.1,0-0.2,0.1-0.3,0.1c-0.1,0.1-0.1,0.2-0.1,0.3l0,0.1l0.1-0.1     c0.1-0.1,0.1-0.1,0.2-0.1c0,0,0.1,0,0.2,0c0.1,0,0.1,0,0.2,0c0,0,0.1,0.1,0.1,0.1l0,0c0,0.2-0.1,0.3-0.3,0.4l-0.2,0.2l0.2-0.1     c0.1,0,0.1,0,0.2,0l0,0c0.1,0,0.2,0,0.3,0.1c0.1,0.1,0.1,0.1,0.1,0.3c0,0.1,0,0.1,0,0.2c0,0.1,0,0.1,0,0.1c0,0-0.1,0-0.2,0     c-0.1,0-0.2,0-0.2,0c-0.1,0-0.1-0.1-0.2-0.2l-0.1-0.1V48c0,0.1,0,0.1,0,0.2l0,0c0,0,0,0.1,0,0.1c0,0,0,0.1,0,0.1l0,0l0,0     c0.1,0,0.1,0,0.1,0c0,0,0,0,0,0c0,0,0.1,0,0.1,0c0.2,0,0.4-0.1,0.5-0.2C26.2,48,26.3,47.8,26.3,47.7"/>
			<path class="st0" d="M25,46.7L25,46.7l-1.1,0l0,0l0,0c0,0,0,0.1,0,0.2c0,0.1,0,0.2,0,0.2l0,0.1l0.1-0.1C24,47.1,24,47,24.1,47     c0,0,0.1,0,0.2,0l0.5,0c0,0.1-0.2,0.4-0.3,0.7c-0.1,0.3-0.2,0.5-0.3,0.6c0,0,0,0,0,0.1c0,0-0.1,0.1-0.1,0.1l0,0l0.4-0.1l0.1-0.2     c0,0,0,0,0,0c0,0,0,0,0,0c0-0.1,0.2-0.4,0.3-0.8l0.1-0.2c0.1-0.2,0.1-0.3,0.2-0.4l0-0.1L25,46.7L25,46.7L25,46.7L25,46.7z"/>
			<path class="st0" d="M22.1,48.3c-0.1,0-0.2,0-0.2-0.1c-0.1,0-0.1-0.1-0.1-0.1l0.2-1.5l0,0l-0.8,0.1v0l0.2,0     c0.1,0,0.2,0.1,0.2,0.1c0,0,0.1,0.1,0.1,0.1L21.5,48c0,0,0,0-0.1,0.1c0,0-0.1,0-0.2,0c0,0,0,0,0,0l0,0l0,0c0,0,0,0,0,0     c0,0,0,0,0,0L21,48.2l0.4,0.1c0.2,0,0.4,0.1,0.6,0.1l0,0l0,0C22,48.4,22,48.4,22.1,48.3C22,48.4,22.1,48.3,22.1,48.3l0.2,0     L22.1,48.3z"/>
			<path class="st3" d="M34.8,31.2c0.2-0.1,0.2-0.3,0.3-0.5c0-0.2,0.1-0.5,0.3-0.6c0.1-0.1,0.3-0.1,0.4,0c0.1,0.1,0.2,0.2,0.3,0.3     c0,0.1,0.1,0.2,0.1,0.2c0,0.1,0,0.1,0,0.2l0,0l0,0c-0.1,0-0.1,0-0.2,0c-0.1,0-0.1,0-0.2,0l-0.1,0l0.1-0.1     c0.1-0.1,0.1-0.1,0.1-0.2c0-0.1,0-0.1,0-0.2c0,0,0-0.1-0.1-0.1c0,0-0.1,0-0.1,0c0,0-0.1,0-0.1,0c-0.1,0.1-0.2,0.2-0.2,0.4     c0,0.3-0.1,0.5-0.4,0.7c-0.1,0.1-0.3,0.1-0.5,0c-0.1-0.1-0.2-0.2-0.3-0.4c0-0.1-0.1-0.2-0.1-0.2c0-0.1,0-0.2,0-0.2l0,0l0,0     c0.1,0,0.1,0,0.2-0.1c0.1,0,0.1,0,0.2,0l0,0l0,0.1l0,0c-0.1,0.1-0.1,0.2-0.1,0.3c0,0.1,0,0.2,0,0.3c0,0,0,0.1,0,0.1     c0,0,0,0,0,0.1c0,0,0.1,0,0.1,0C34.7,31.2,34.8,31.2,34.8,31.2"/>
			<path class="st3" d="M33.9,27.1C33.9,27.1,33.9,27,33.9,27.1C33.9,27,33.9,27,33.9,27.1l0-0.3l0.8,1.1l0,0c0,0-0.1,0.1-0.2,0.1     c-0.1,0-0.1,0.1-0.2,0.1l0,0L34.2,28l0,0c0.1-0.1,0.1-0.1,0.1-0.2c0-0.1-0.1-0.2-0.2-0.4c0,0,0,0,0-0.1l0,0c0,0,0,0-0.1,0     l-0.4,0.3l0.2,0.3c0,0,0.1,0.1,0.1,0.1c0,0,0.1,0.1,0.1,0.1l0.1,0.1l-0.1,0c-0.1,0-0.1,0-0.2,0c0,0-0.1-0.1-0.1-0.1l-0.2-0.3     l-0.5,0.4c0,0,0,0,0,0c0,0,0,0,0,0l0.1,0.1c0.1,0.2,0.2,0.2,0.3,0.3c0.1,0,0.2,0,0.3,0l0,0l0.1,0.1l0,0c-0.1,0-0.1,0.1-0.2,0.1     c-0.1,0-0.1,0.1-0.2,0.1l0,0l-0.8-1.1l0.2,0.1c0,0,0,0,0,0c0,0,0,0,0.1,0L33.9,27.1z"/>
			<path class="st3" d="M25.1,23.6C25.1,23.6,25.1,23.6,25.1,23.6c0.1-0.1,0.1-0.1,0.1-0.1l0.3-1.4l0-0.3l0.9,1.7l0-0.2l0.1-0.8     c0,0,0-0.1,0-0.1c0,0,0,0,0-0.1l-0.2-0.1l0.7,0.2L27,22.3c0,0-0.1,0-0.1,0c0,0,0,0,0,0.1c-0.1,0.6-0.3,1.2-0.4,1.8l-0.9-1.6     l-0.1,0.3l-0.1,0.7c0,0,0,0.1,0,0.1c0,0,0,0,0,0.1l0.2,0.2l-0.7-0.2L25.1,23.6z"/>
			<path class="st3" d="M22.7,21.8l-0.1,0.1c0,0,0,0,0,0c0,0,0,0,0,0.1l0.2,1.5c0,0,0,0,0,0.1c0,0,0,0,0,0l0.2,0.1l-0.2,0l-0.6,0.1     l0.1-0.1c0,0,0,0,0,0c0,0,0,0,0-0.1L22.2,22c0,0,0,0,0-0.1c0,0,0,0,0,0L22,21.8L22.7,21.8z"/>
			<path class="st3" d="M20.4,22.5c0.1-0.2,0.3-0.4,0.6-0.5c0.1,0,0.2,0,0.2,0c0.1,0,0.2,0,0.3,0l0,0l0,0c0,0.1,0,0.1,0,0.2     c0,0.1,0,0.1-0.1,0.2l0,0.1l-0.1,0c-0.1-0.1-0.1-0.1-0.2-0.1c-0.1,0-0.2,0-0.2,0c-0.1,0-0.1,0-0.1,0c0,0-0.1,0-0.1,0.1     c0,0.1-0.1,0.2-0.1,0.3c0,0.1,0,0.2,0,0.4v0c0.1,0.2,0.2,0.4,0.3,0.5c0.1,0.1,0.3,0.1,0.5,0.1c0.1,0,0.2-0.1,0.2-0.1     c0-0.1,0.1-0.2,0.1-0.3l0,0l0.1,0l0,0.1c0,0.1,0,0.2,0,0.2c0,0.1,0,0.2,0,0.2l0,0l0,0c-0.1,0-0.1,0.1-0.2,0.1     c-0.1,0-0.2,0.1-0.3,0.1l0,0c-0.3,0.1-0.5,0-0.7-0.1c-0.2-0.1-0.3-0.3-0.4-0.6l0,0C20.3,23,20.3,22.7,20.4,22.5"/>
			<path class="st3" d="M18,24.3l-0.5-0.7c0,0,0,0-0.1-0.1c0,0,0,0-0.1,0l-0.2,0l0.6-0.4l-0.1,0.2c0,0,0,0.1,0,0.1c0,0,0,0,0,0.1     c0.3,0.5,0.6,1,0.9,1.6L17,24.5l0.2,0.3l0.4,0.6c0,0,0,0,0.1,0.1c0,0,0,0,0.1,0l0.2,0l-0.6,0.4l0.1-0.2c0,0,0-0.1,0-0.1     c0,0,0,0,0-0.1l-0.8-1.3l-0.2-0.3l1.8,0.6L18,24.3z"/>
			<path class="st3" d="M11,31l0.1,0.2c0,0,0,0,0,0.1c0,0,0,0,0.1,0l1.4,0.4c0,0,0,0,0.1,0c0,0,0,0,0.1,0l0.1-0.1l0,0.2l-0.1,0.5     L12.6,32c0,0,0,0,0,0c0,0,0,0-0.1,0l-1.4-0.4c0,0,0,0-0.1,0c0,0,0,0-0.1,0l-0.1,0.1L11,31z"/>
			<path class="st3" d="M10.6,32.7c0-0.1,0-0.2,0.1-0.2c0-0.1,0.1-0.1,0.1-0.2l0,0l0,0c0.1,0,0.1,0,0.2,0.1c0,0,0.1,0.1,0.1,0.1     l0.1,0.1l-0.1,0c-0.1,0-0.1,0.1-0.2,0.1c0,0-0.1,0.1-0.1,0.2c0,0,0,0.1,0,0.1c0,0,0,0,0.1,0.1c0,0,0.1,0,0.1,0     c0.1,0,0.3-0.1,0.4-0.3c0.2-0.2,0.3-0.4,0.7-0.4c0.1,0,0.3,0.1,0.4,0.3c0.1,0.1,0.1,0.3,0.1,0.5c0,0.1,0,0.2-0.1,0.2     c0,0.1-0.1,0.2-0.1,0.2l0,0l0,0c-0.1,0-0.1,0-0.2,0c-0.1,0-0.1,0-0.2-0.1l0,0l0-0.1l0,0c0.1,0,0.2-0.1,0.3-0.1     c0.1-0.1,0.1-0.1,0.1-0.3c0,0,0-0.1,0-0.1c0,0,0-0.1,0-0.1c0,0-0.1,0-0.1-0.1c0,0-0.1,0-0.1,0c-0.2,0-0.4,0.1-0.5,0.3     c-0.2,0.2-0.3,0.4-0.6,0.3c-0.1,0-0.3-0.1-0.3-0.2C10.6,33,10.6,32.9,10.6,32.7"/>
			<path class="st3" d="M10.4,35.8L10.4,35.8c0.1,0,0.2,0,0.3,0c0.1,0,0.1,0,0.2,0l0,0l0,0.1l0,0c-0.1,0-0.1,0.1-0.2,0.1     c0,0.1-0.1,0.2,0,0.4c0,0,0,0,0,0.1h0c0,0,0,0,0.1,0l0.5,0l0-0.3c0,0,0-0.1,0-0.1c0,0,0-0.1,0-0.1l0-0.1l0.1,0     c0.1,0,0.1,0.1,0.2,0.1c0,0,0,0.1,0,0.2l0,0.4l0.6-0.1c0,0,0,0,0,0c0,0,0,0,0,0l0-0.1c0-0.2-0.1-0.3-0.1-0.4     c-0.1-0.1-0.1-0.1-0.2-0.1l0,0l0-0.1l0.1,0c0.1,0,0.2,0,0.3,0c0.1,0,0.2,0,0.2,0l0,0l0.1,1.3l-0.1-0.1c0,0,0,0,0,0c0,0,0,0-0.1,0     l-1.5,0.1c0,0,0,0-0.1,0c0,0,0,0,0,0l-0.1,0.2L10.4,35.8z"/>
			<path class="st3" d="M11.4,39.7l-0.1,0.2l-0.2-0.6l-0.2-0.8l0.1,0c0,0,0,0,0.1,0c0,0,0,0,0.1,0l1-0.7l-0.5-0.1L11,37.7     c0,0,0,0-0.1,0c0,0,0,0,0,0c0,0,0,0,0,0c0,0,0,0.1,0,0.1l0,0.4l-0.2-0.9l0.1,0c0.1,0,0.1,0,0.2,0c0.6,0.1,1.3,0.2,1.9,0.3     l-1.6,1.1c0,0,0,0-0.1,0.1c0,0,0,0.1,0,0.1v0.2l0.1,0.1c0,0,0,0,0.1,0c0,0,0,0,0.1,0l1.4-0.5c0,0,0,0,0.1,0c0,0,0,0,0-0.1     l0.1-0.2l0.1,0.2l0.2,0.5L13,39.2c0,0,0,0-0.1,0c0,0,0,0-0.1,0L11.4,39.7C11.4,39.7,11.4,39.7,11.4,39.7     C11.4,39.7,11.4,39.7,11.4,39.7"/>
			<path class="st3" d="M12,41.9l0.7-1.7l-0.2,0.1l-0.7,0.4c0,0,0,0-0.1,0c0,0,0,0,0,0.1l0,0.2l-0.3-0.7l0.2,0.1c0,0,0,0,0.1,0     c0,0,0,0,0.1,0c0.5-0.3,1.1-0.5,1.6-0.8l-0.7,1.7l0.3-0.1l0.6-0.3c0,0,0,0,0.1,0c0,0,0,0,0-0.1l0-0.2l0.3,0.7l-0.2-0.1     c0,0-0.1,0-0.1,0c0,0,0,0-0.1,0l-1.3,0.6L12,41.9z"/>
			<path class="st3" d="M14.7,42.4c0,0.2-0.1,0.3-0.3,0.5l-0.8,0.6c0,0,0,0,0,0c0,0,0,0,0,0.1l0,0.2L13,43.1l0.2,0.1c0,0,0,0,0.1,0     c0,0,0,0,0.1,0l0.8-0.6c0.1-0.1,0.2-0.2,0.2-0.3c0-0.1,0-0.2-0.1-0.3c-0.1-0.1-0.2-0.2-0.3-0.2c-0.1,0-0.3,0-0.4,0.1     c-0.3,0.2-0.4,0.3-0.5,0.4c-0.1,0.1-0.2,0.1-0.3,0.2c0,0,0,0,0,0c0,0,0,0,0,0.1l0,0.2l-0.4-0.6l0.2,0.1c0,0,0,0,0.1,0     c0,0,0,0,0.1,0c0.1-0.1,0.2-0.1,0.3-0.2c0.1-0.1,0.2-0.2,0.5-0.3l0,0c0.2-0.1,0.4-0.2,0.6-0.2c0.2,0,0.4,0.1,0.5,0.3     C14.7,42.1,14.7,42.2,14.7,42.4"/>
			<path class="st3" d="M19.6,47.1c0,0.1-0.1,0.1-0.2,0.2c-0.1,0-0.2,0.1-0.2,0c-0.1,0-0.1-0.1-0.2-0.2c0-0.1-0.1-0.2,0-0.2     c0-0.1,0.1-0.1,0.2-0.2c0.1,0,0.2-0.1,0.2,0c0.1,0,0.1,0.1,0.2,0.2C19.6,46.9,19.6,47,19.6,47.1"/>
			<path class="st3" d="M28.3,47c0,0.1-0.1,0.2-0.1,0.2c-0.1,0-0.2,0-0.2,0c-0.1,0-0.2-0.1-0.2-0.1c0-0.1,0-0.2,0-0.2     c0-0.1,0.1-0.2,0.1-0.2c0.1,0,0.2,0,0.2,0c0.1,0,0.2,0.1,0.2,0.1C28.4,46.8,28.4,46.9,28.3,47"/>
			<path class="st3" d="M36.4,39l-0.1-0.2c0,0,0,0,0-0.1c0,0,0,0-0.1,0l-1-0.3c-0.1,0-0.2-0.1-0.3,0c-0.1,0-0.2,0.1-0.2,0.3v0     c0,0.1,0,0.3,0,0.4c0.1,0.1,0.2,0.2,0.3,0.2c0.3,0.1,0.5,0.2,0.6,0.2c0.1,0,0.2,0.1,0.3,0.1c0,0,0,0,0.1,0c0,0,0,0,0.1,0l0.2-0.1     L36.1,40L36,39.8c0,0,0,0,0,0c0,0,0,0-0.1,0c-0.2-0.1-0.3-0.1-0.9-0.3l0,0c-0.2-0.1-0.4-0.2-0.5-0.4c-0.1-0.2-0.1-0.3,0-0.6     c0.1-0.2,0.2-0.4,0.3-0.5c0.2-0.1,0.3-0.1,0.6,0l1,0.3c0,0,0,0,0.1,0c0,0,0,0,0.1,0l0.2-0.1L36.4,39z"/>
			<path class="st3" d="M36.7,38l-0.1-0.2c0,0,0,0,0,0c0,0,0,0-0.1,0l-1.3-0.2c-0.2,0-0.3-0.1-0.4-0.2c-0.1-0.1-0.1-0.3-0.1-0.5     l0-0.1l0.1,0l0,0c0,0.1,0,0.2,0.1,0.2c0.1,0.1,0.2,0.1,0.3,0.1l1.3,0.2c0,0,0,0,0.1,0c0,0,0,0,0,0l0.1-0.1L36.7,38z"/>
			<path class="st1" d="M22.8,45.5h1.8c0.3,0,0.6-0.1,0.9-0.1h-3.6C22.2,45.4,22.5,45.4,22.8,45.5"/>
			<path class="st1" d="M19.7,44.7h7.9c0.1,0,0.2-0.1,0.3-0.1h-8.6C19.5,44.6,19.6,44.7,19.7,44.7"/>
			<path class="st1" d="M18.2,44h10.9c0.1-0.1,0.2-0.1,0.3-0.2H18C18.1,43.9,18.2,43.9,18.2,44"/>
			<path class="st1" d="M17.2,43.2h13c0.1-0.1,0.2-0.1,0.2-0.2H17C17,43.1,17.1,43.1,17.2,43.2"/>
			<path class="st1" d="M16.4,42.5H31c0.1-0.1,0.1-0.1,0.2-0.2h-15C16.2,42.3,16.3,42.4,16.4,42.5"/>
			<path class="st1" d="M15.7,41.7h16c0.1-0.1,0.1-0.2,0.2-0.2H15.5C15.6,41.5,15.6,41.6,15.7,41.7"/>
			<path class="st1" d="M15.1,40.9h17.1c0.1-0.1,0.1-0.2,0.2-0.3H15C15,40.8,15.1,40.8,15.1,40.9"/>
			<path class="st1" d="M14.7,40.2h18c0.1-0.1,0.1-0.2,0.2-0.3H14.5C14.6,40,14.6,40.1,14.7,40.2"/>
			<path class="st1" d="M14.3,39.4h18.8c0-0.1,0.1-0.2,0.1-0.3h-19C14.2,39.2,14.3,39.3,14.3,39.4"/>
			<path class="st1" d="M14,38.7h19.4c0-0.1,0.1-0.2,0.1-0.3H13.9C13.9,38.4,14,38.6,14,38.7"/>
			<path class="st1" d="M13.8,37.9h19.8c0-0.1,0.1-0.2,0.1-0.4h-20C13.7,37.7,13.7,37.8,13.8,37.9"/>
			<path class="st1" d="M13.6,37.2h20.2c0-0.1,0.1-0.3,0.1-0.4H13.5C13.5,36.9,13.6,37,13.6,37.2"/>
		</g>
	</g>
	<g>
		<g>
			<g>
				<path class="st0" d="M5.6,4.9v0.5H4.5v0.7h1v0.5h-1v0.8h1.1v0.5H3.9v-3H5.6z"/>
				<path class="st0" d="M6.6,7L6.6,7c0,0.4,0.1,0.5,0.4,0.5c0.2,0,0.4-0.1,0.4-0.4c0-0.3-0.1-0.4-0.5-0.5C6.3,6.5,6.1,6.2,6.1,5.8      c0-0.6,0.4-0.9,0.9-0.9c0.5,0,0.9,0.2,0.9,0.8v0.1H7.3c0-0.3-0.1-0.4-0.3-0.4c-0.3,0-0.3,0.2-0.3,0.3C6.7,5.8,6.7,6,7,6.1      l0.5,0.2C7.9,6.5,8,6.7,8,7.1C8,7.7,7.6,8,7,8C6.3,8,6,7.7,6,7.1V7H6.6z"/>
				<path class="st0" d="M9.8,5.9c0-0.4-0.1-0.6-0.4-0.6c-0.3,0-0.4,0.3-0.4,1.1c0,0.9,0.1,1.1,0.4,1.1c0.2,0,0.4-0.1,0.4-0.8h0.6      c0,0.6-0.2,1.2-0.9,1.2c-0.9,0-1-0.6-1-1.5c0-0.9,0.1-1.5,1-1.5c0.9,0,0.9,0.6,0.9,1.1H9.8z"/>
				<path class="st0" d="M11.6,4.9V7c0,0.3,0.1,0.5,0.3,0.5c0.3,0,0.3-0.2,0.3-0.5V4.9h0.6V7c0,0.8-0.5,1-0.9,1C11.4,8,11,7.8,11,7      V4.9H11.6z"/>
				<path class="st0" d="M15.1,4.9v0.5h-1.1v0.7h1v0.5h-1v0.8h1.1v0.5h-1.7v-3H15.1z"/>
				<path class="st0" d="M15.7,7.9v-3h0.6v2.5h1.1v0.5H15.7z"/>
				<path class="st0" d="M18.5,4.9h0.7l0.8,3h-0.6l-0.1-0.6h-0.8l-0.1,0.6h-0.6L18.5,4.9z M18.6,6.8h0.6l-0.3-1.3h0L18.6,6.8z"/>
				<path class="st0" d="M21.7,7.9v-3h0.6v3H21.7z"/>
				<path class="st0" d="M23.7,4.9l0.7,2h0v-2H25v3h-0.7l-0.7-2.1h0v2.1H23v-3H23.7z"/>
				<path class="st0" d="M25.7,4.9h1c0.8,0,1,0.6,1,1.4c0,1.1-0.2,1.5-1,1.5h-0.9V4.9z M26.3,7.5h0.3c0.4,0,0.5-0.3,0.5-1.1      c0-0.7-0.1-1-0.5-1h-0.3V7.5z"/>
				<path class="st0" d="M28.8,4.9V7c0,0.3,0.1,0.5,0.3,0.5c0.3,0,0.3-0.2,0.3-0.5V4.9h0.6V7c0,0.8-0.5,1-0.9,1      c-0.5,0-0.9-0.2-0.9-1V4.9H28.8z"/>
				<path class="st0" d="M31.2,7L31.2,7c0,0.4,0.1,0.5,0.4,0.5c0.2,0,0.4-0.1,0.4-0.4c0-0.3-0.1-0.4-0.5-0.5      c-0.5-0.2-0.8-0.4-0.8-0.9c0-0.6,0.4-0.9,0.9-0.9c0.5,0,0.9,0.2,0.9,0.8v0.1h-0.6c0-0.3-0.1-0.4-0.3-0.4c-0.3,0-0.3,0.2-0.3,0.3      c0,0.2,0.1,0.3,0.3,0.4L32,6.3c0.4,0.2,0.6,0.4,0.6,0.8c0,0.6-0.4,0.9-1,0.9c-0.7,0-0.9-0.3-0.9-0.9V7H31.2z"/>
				<path class="st0" d="M34.9,4.9v0.5h-0.6v2.5h-0.6V5.4H33V4.9H34.9z"/>
				<path class="st0" d="M35.4,4.9h1.1c0.5,0,0.8,0.3,0.8,0.8c0,0.4-0.2,0.7-0.5,0.7v0c0.4,0.1,0.5,0.3,0.5,0.9c0,0.3,0,0.5,0.1,0.5      v0h-0.6c-0.1-0.1-0.1-0.2-0.1-0.3l0-0.6c0-0.2-0.1-0.4-0.4-0.4H36v1.3h-0.6V4.9z M36,6.2h0.2c0.3,0,0.5-0.1,0.5-0.4      c0-0.3-0.1-0.4-0.4-0.4H36V6.2z"/>
				<path class="st0" d="M38,7.9v-3h0.6v3H38z"/>
				<path class="st0" d="M39.8,4.9h0.7l0.8,3h-0.6l-0.1-0.6h-0.8l-0.1,0.6H39L39.8,4.9z M39.9,6.8h0.6l-0.3-1.3h0L39.9,6.8z"/>
				<path class="st0" d="M41.8,7.9v-3h0.6v2.5h1.1v0.5H41.8z"/>
			</g>
		</g>
		<g>
			<path class="st0" d="M3.9,8.9h1c0.8,0,1,0.6,1,1.4c0,1.1-0.2,1.5-1,1.5H3.9V8.9z M4.5,11.5h0.3c0.4,0,0.5-0.3,0.5-1.1     c0-0.7-0.1-1-0.5-1H4.5V11.5z"/>
			<path class="st0" d="M7.2,8.9c0.9,0,1,0.6,1,1.5c0,0.9-0.1,1.5-1,1.5s-1-0.6-1-1.5C6.2,9.5,6.3,8.9,7.2,8.9z M7.2,11.5     c0.4,0,0.4-0.3,0.4-1.1c0-0.8-0.1-1.1-0.4-1.1s-0.4,0.3-0.4,1.1C6.8,11.2,6.9,11.5,7.2,11.5z"/>
			<path class="st0" d="M8.6,8.9h0.9L9.9,11h0l0.4-2.1h0.9v3h-0.5V9.5h0l-0.5,2.4H9.7L9.2,9.5h0v2.4H8.6V8.9z"/>
			<path class="st0" d="M11.7,11.9v-3h0.6v3H11.7z"/>
			<path class="st0" d="M13.4,8.9l0.7,2h0v-2h0.6v3H14l-0.7-2.1h0v2.1h-0.6v-3H13.4z"/>
			<path class="st0" d="M16.4,9.8c0-0.2-0.1-0.5-0.3-0.5c-0.3,0-0.4,0.3-0.4,1c0,0.7,0.1,1.2,0.4,1.2c0.1,0,0.4-0.2,0.4-0.5v-0.3     h-0.4v-0.4h1v1.6h-0.4v-0.3h0C16.5,11.9,16.3,12,16,12c-0.7,0-0.9-0.5-0.9-1.6c0-1,0.2-1.5,1-1.5c0.7,0,0.9,0.3,0.9,0.9H16.4z"/>
			<path class="st0" d="M18.4,8.9c0.9,0,1,0.6,1,1.5c0,0.9-0.1,1.5-1,1.5c-0.9,0-1-0.6-1-1.5C17.4,9.5,17.5,8.9,18.4,8.9z      M18.4,11.5c0.4,0,0.4-0.3,0.4-1.1c0-0.8-0.1-1.1-0.4-1.1C18,9.3,18,9.6,18,10.4C18,11.2,18,11.5,18.4,11.5z"/>
			<path class="st0" d="M20.8,8.9h1.7v0.5h-1.1v0.7h1v0.5h-1v1.3h-0.6V8.9z"/>
			<path class="st0" d="M22.8,11.2v0.6h-0.5v-0.6H22.8z"/>
			<path class="st0" d="M24.5,11L24.5,11c0,0.4,0.1,0.5,0.4,0.5c0.2,0,0.4-0.1,0.4-0.4c0-0.3-0.1-0.4-0.5-0.5     c-0.5-0.2-0.8-0.4-0.8-0.9c0-0.6,0.4-0.9,0.9-0.9c0.5,0,0.9,0.2,0.9,0.8v0.1h-0.6c0-0.3-0.1-0.4-0.3-0.4c-0.3,0-0.3,0.2-0.3,0.3     c0,0.2,0.1,0.3,0.3,0.4l0.5,0.2c0.4,0.2,0.6,0.4,0.6,0.8c0,0.6-0.4,0.9-1,0.9c-0.7,0-0.9-0.3-0.9-0.9V11H24.5z"/>
			<path class="st0" d="M26.8,8.9h0.7l0.8,3h-0.6l-0.1-0.6h-0.8l-0.1,0.6H26L26.8,8.9z M26.9,10.8h0.6l-0.3-1.3h0L26.9,10.8z"/>
			<path class="st0" d="M28.5,8.9h1.1c0.5,0,0.8,0.3,0.8,0.8c0,0.4-0.2,0.7-0.5,0.7v0c0.4,0.1,0.5,0.3,0.5,0.9c0,0.3,0,0.5,0.1,0.5     v0h-0.6c-0.1-0.1-0.1-0.2-0.1-0.3l0-0.6c0-0.2-0.1-0.4-0.4-0.4h-0.3v1.3h-0.6V8.9z M29.1,10.2h0.2c0.3,0,0.4-0.1,0.4-0.4     c0-0.3-0.1-0.4-0.4-0.4h-0.3V10.2z"/>
			<path class="st0" d="M30.9,8.9h0.9l0.4,2.1h0l0.4-2.1h0.9v3h-0.6V9.5h0l-0.5,2.4h-0.5l-0.5-2.4h0v2.4h-0.6V8.9z"/>
			<path class="st0" d="M33.9,11.9v-3h0.6v3H33.9z"/>
			<path class="st0" d="M36.7,8.9v0.5h-1.1v0.7h1v0.5h-1v0.8h1.1v0.5H35v-3H36.7z"/>
			<path class="st0" d="M37.7,8.9l0.7,2h0v-2H39v3h-0.7l-0.7-2.1h0v2.1H37v-3H37.7z"/>
			<path class="st0" d="M41.1,8.9v0.5h-0.6v2.5h-0.6V9.4h-0.7V8.9H41.1z"/>
			<path class="st0" d="M42.3,8.9c0.9,0,1,0.6,1,1.5c0,0.9-0.1,1.5-1,1.5c-0.9,0-1-0.6-1-1.5C41.3,9.5,41.4,8.9,42.3,8.9z      M42.3,11.5c0.4,0,0.4-0.3,0.4-1.1c0-0.8-0.1-1.1-0.4-1.1c-0.4,0-0.4,0.3-0.4,1.1C41.9,11.2,42,11.5,42.3,11.5z"/>
		</g>
	</g>
</g>
</svg>